<?xml version="1.0" encoding="UTF-8" standalone="no"?>
<!-- Created with Inkscape (http://www.inkscape.org/) -->

<svg
   version="1.1"
   id="svg1"
   width="387.16132"
   height="169.088"
   viewBox="0 0 387.16132 169.088"
   xmlns="http://www.w3.org/2000/svg"
   xmlns:svg="http://www.w3.org/2000/svg">
  <defs
     id="defs1" />
  <g
     id="g1">
    <path
       id="path1"
       d="M 14.17339,0 C 14.17339,7.82784 7.82784,14.17339 0,14.17339 -7.82784,14.17339 -14.17339,7.82784 -14.17339,0 c 0,-7.82784 6.34555,-14.17339 14.17339,-14.17339 7.82784,0 14.17339,6.34555 14.17339,14.17339 z"
       style="fill:none;stroke:#000000;stroke-width:0.3985;stroke-linecap:butt;stroke-linejoin:miter;stroke-miterlimit:10;stroke-dasharray:none;stroke-opacity:1"
       transform="matrix(1.3333333,0,0,-1.3333333,83.869333,85.977333)" />
    <path
       id="path2"
       d="m 4.5003359,-4.2879062 c 0,-0.046875 -0.023437,-0.1054688 -0.09375,-0.1054688 -0.1171875,0 -0.515625,0.3984375 -0.6796875,0.6914063 -0.2226562,-0.5390625 -0.609375,-0.703125 -0.9257812,-0.703125 -1.171875,0 -2.40234376,1.4765625 -2.40234376,2.9179687 0,0.984375 0.5859375,1.59375 1.31249996,1.59375 0.4335938,0 0.8203125,-0.234375 1.1835938,-0.59765625 -0.09375,0.3515625 -0.421875,1.69921875 -0.4570313,1.79296875 -0.082031,0.2695313 -0.1523437,0.3164063 -0.7148437,0.328125 -0.1289063,0 -0.2226563,0 -0.2226563,0.1992188 0,0 0,0.1054687 0.1289063,0.1054687 0.3164062,0 0.6679687,-0.035156 0.9960937,-0.035156 0.328125,0 0.6914063,0.035156 1.0195313,0.035156 0.046875,0 0.1757812,0 0.1757812,-0.1992187 0,-0.1054688 -0.09375,-0.1054688 -0.2578125,-0.1054688 -0.46875,0 -0.46875,-0.070312 -0.46875,-0.1640625 0,-0.070312 0.011719,-0.1289062 0.035156,-0.2226562 z m -2.7539062,4.1835937 c -0.5976563,0 -0.6445313,-0.7734375 -0.6445313,-0.9375 0,-0.4804687 0.2929688,-1.5703125 0.4570313,-1.9804687 0.3164062,-0.7382813 0.8320312,-1.1601563 1.2421875,-1.1601563 0.6445312,0 0.7851562,0.8085938 0.7851562,0.8789063 0,0.058594 -0.5507812,2.2382812 -0.5742187,2.2734375 -0.1523438,0.28124995 -0.7148438,0.9257812 -1.265625,0.9257812 z m 0,0"
       style="fill:#000000;fill-opacity:1;fill-rule:nonzero;stroke:none"
       aria-label="q"
       transform="matrix(1.3333333,0,0,1.3333333,77.925333,87.545333)" />
    <path
       id="path3"
       d="m 3.5982578,-2.2252656 c 0,-0.7617188 -0.09375,-1.3125 -0.4101562,-1.8046875 -0.2226563,-0.3164063 -0.6445313,-0.5976563 -1.2070313,-0.5976563 -1.61718749,0 -1.61718749,1.8984375 -1.61718749,2.4023438 0,0.5039062 0,2.36718748 1.61718749,2.36718748 1.6171875,0 1.6171875,-1.86328128 1.6171875,-2.36718748 z m -1.6171875,2.16796873 c -0.3164062,0 -0.75,-0.1875 -0.890625,-0.76171875 -0.09375,-0.41015628 -0.09375,-0.98437498 -0.09375,-1.49999998 0,-0.5039063 0,-1.03125 0.1054688,-1.4179688 0.1523437,-0.5507812 0.5976562,-0.6914062 0.8789062,-0.6914062 0.375,0 0.7382813,0.2226562 0.8671875,0.6328125 0.1054688,0.375 0.1171875,0.8789062 0.1171875,1.4765625 0,0.515625 0,1.0429687 -0.09375,1.47656248 -0.140625,0.6328125 -0.609375,0.78515625 -0.890625,0.78515625 z m 0,0"
       style="fill:#000000;fill-opacity:1;fill-rule:nonzero;stroke:none"
       aria-label="0"
       transform="matrix(1.3333333,0,0,1.3333333,83.854667,89.537333)" />
    <path
       id="path4"
       d="m -27.2545,0 h 12.42358"
       style="fill:none;stroke:#000000;stroke-width:0.3985;stroke-linecap:butt;stroke-linejoin:miter;stroke-miterlimit:10;stroke-dasharray:none;stroke-opacity:1"
       transform="matrix(1.3333333,0,0,-1.3333333,83.869333,85.977333)" />
    <path
       id="path5"
       d="M -1.19551,1.59401 C -1.09587,0.99626 0,0.09961 0.29886,0 0,-0.09961 -1.09587,-0.99626 -1.19551,-1.59401"
       style="fill:none;stroke:#000000;stroke-width:0.31879;stroke-linecap:round;stroke-linejoin:round;stroke-miterlimit:10;stroke-dasharray:none;stroke-opacity:1"
       transform="matrix(1.3333333,0,0,-1.3333333,64.094773,85.977333)" />
    <path
       id="path6"
       d="m 3.5873437,-1.2771328 c 0,-0.5273438 -0.2929687,-0.8203125 -0.421875,-0.9492188 C 2.8373437,-2.5427578 2.450625,-2.6247891 2.02875,-2.6951016 1.4779687,-2.8122891 0.81,-2.9411953 0.81,-3.5154141 c 0,-0.3515625 0.2578125,-0.7617187 1.1132812,-0.7617187 1.1015625,0 1.1484375,0.9023437 1.171875,1.2070312 0,0.09375 0.1171875,0.09375 0.1171875,0.09375 0.1289063,0 0.1289063,-0.046875 0.1289063,-0.2460937 v -0.9960938 c 0,-0.1757812 0,-0.2460937 -0.1171875,-0.2460937 -0.046875,0 -0.070312,0 -0.1992188,0.1171875 -0.023437,0.046875 -0.1289062,0.1289062 -0.1640625,0.1640625 -0.375,-0.28125 -0.7851562,-0.28125 -0.9375,-0.28125 -1.21874995,0 -1.59374995,0.6679687 -1.59374995,1.2304687 0,0.3398438 0.1640625,0.6210938 0.43359375,0.84375 0.3164062,0.2578125 0.5976562,0.3164063 1.3125,0.4570313 0.2226562,0.035156 1.03125,0.1992187 1.03125,0.9140625 0,0.51562499 -0.3515625,0.91406249 -1.125,0.91406249 -0.8320313,0 -1.1953125,-0.57421875 -1.3828125,-1.41796879 -0.0351563,-0.1289062 -0.0351563,-0.1757812 -0.140625,-0.1757812 -0.12890625,0 -0.12890625,0.070312 -0.12890625,0.2578125 v 1.31249999 c 0,0.1640625 0,0.234375 0.10546875,0.234375 0.0585938,0 0.0703125,0 0.2578125,-0.19921875 0.0117188,-0.01171875 0.0117188,-0.03515625 0.19921875,-0.22265625 0.43359375,0.421875 0.87890625,0.421875 1.08984375,0.421875 1.1484375,0 1.6054687,-0.66796875 1.6054687,-1.38281249 z m 3.6416016,0.046875 V -1.8044766 H 6.9828516 v 0.5507813 c 0,0.73828124 -0.3046875,1.11328124 -0.6679688,1.11328124 -0.6679687,0 -0.6679687,-0.90234374 -0.6679687,-1.07812504 v -2.765625 H 7.0766016 V -4.2888516 H 5.6469141 V -6.1286953 H 5.4008203 c -0.011719,0.8203125 -0.3164062,1.8867187 -1.2890625,1.921875 v 0.2226562 h 0.84375 v 2.7539063 c 0,1.21874999 0.9257813,1.33593749 1.2890625,1.33593749 0.703125,0 0.984375,-0.703125 0.984375,-1.33593749 z m 5.3876957,0.33984374 V -1.4411953 h -0.257813 v 0.55078124 c 0,0.5859375 -0.246094,0.64453125 -0.351562,0.64453125 -0.328125,0 -0.375,-0.45703125 -0.375,-0.50390625 V -2.7419766 c 0,-0.4101562 0,-0.8085937 -0.351563,-1.171875 -0.386719,-0.3867187 -0.890625,-0.5507812 -1.3710936,-0.5507812 -0.8085938,0 -1.5,0.46875 -1.5,1.125 0,0.3046875 0.1992187,0.46875 0.4570312,0.46875 0.28125,0 0.4570313,-0.1992188 0.4570313,-0.4570313 0,-0.1171875 -0.046875,-0.4453125 -0.5039063,-0.4570312 0.2695313,-0.3515625 0.75,-0.4570313 1.078125,-0.4570313 0.4804684,0 1.0546874,0.3867188 1.0546874,1.2773438 v 0.3632812 c -0.515625,0.035156 -1.2070311,0.058594 -1.8398436,0.3632813 -0.75,0.3398437 -0.9960938,0.8554687 -0.9960938,1.28906249 0,0.80859375 0.9726563,1.0546875 1.59375,1.0546875 0.6562504,0 1.1132814,-0.3984375 1.3125004,-0.8671875 0.03516,0.3984375 0.304687,0.8203125 0.773437,0.8203125 0.210938,0 0.820313,-0.140625 0.820313,-0.94921875 z M 10.952578,-1.3943203 c 0,0.94921874 -0.726562,1.28906249 -1.1718749,1.28906249 -0.4804687,0 -0.890625,-0.3515625 -0.890625,-0.85546875 0,-0.53906254 0.4101563,-1.37109374 2.0624999,-1.42968754 z m 5.449219,-2.4023438 c 0,-0.3164062 -0.304688,-0.609375 -0.726563,-0.609375 -0.738281,0 -1.089843,0.6679688 -1.230468,1.1015625 v -1.1015625 l -1.382813,0.1171875 v 0.3046875 c 0.691406,0 0.773438,0.070312 0.773438,0.5625 v 2.66015629 c 0,0.45703125 -0.105469,0.45703125 -0.773438,0.45703125 V 2.109375e-4 L 14.198672,-0.03494531 c 0.398437,0 0.867187,0 1.265625,0.0351562475 V -0.30447656 h -0.210938 c -0.738281,0 -0.761718,-0.1171875 -0.761718,-0.46875 V -2.3083828 c 0,-0.984375 0.421875,-1.875 1.183593,-1.875 0.05859,0 0.08203,0 0.105469,0.011719 -0.03516,0.011719 -0.234375,0.1289063 -0.234375,0.3867188 0,0.28125 0.210938,0.4335937 0.433594,0.4335937 0.175781,0 0.421875,-0.1289062 0.421875,-0.4453128 z m 3.588867,2.5664063 V -1.8044766 H 19.74457 v 0.5507813 c 0,0.73828124 -0.304687,1.11328124 -0.667968,1.11328124 -0.667969,0 -0.667969,-0.90234374 -0.667969,-1.07812504 v -2.765625 h 1.429687 v -0.3046875 h -1.429687 v -1.8398437 h -0.246094 c -0.01172,0.8203125 -0.316406,1.8867187 -1.289062,1.921875 v 0.2226562 h 0.84375 v 2.7539063 c 0,1.21874999 0.925781,1.33593749 1.289062,1.33593749 0.703125,0 0.984375,-0.703125 0.984375,-1.33593749 z m 0,0"
       style="fill:#000000;fill-opacity:1;fill-rule:nonzero;stroke:none"
       aria-label="start"
       transform="matrix(1.3333333,0,0,1.3333333,15.42,89.988)" />
    <path
       id="path7"
       d="m 85.04044,0 c 0,7.82784 -6.34555,14.17339 -14.17341,14.17339 -7.82785,0 -14.17338,-6.34555 -14.17338,-14.17339 0,-7.82784 6.34553,-14.17339 14.17338,-14.17339 7.82786,0 14.17341,6.34555 14.17341,14.17339 z"
       style="fill:none;stroke:#000000;stroke-width:0.3985;stroke-linecap:butt;stroke-linejoin:miter;stroke-miterlimit:10;stroke-dasharray:none;stroke-opacity:1"
       transform="matrix(1.3333333,0,0,-1.3333333,83.869333,85.977333)" />
    <path
       id="path8"
       d="m 4.5005469,-4.2879062 c 0,-0.046875 -0.023437,-0.1054688 -0.09375,-0.1054688 -0.1171875,0 -0.515625,0.3984375 -0.6796875,0.6914063 -0.2226563,-0.5390625 -0.609375,-0.703125 -0.9257813,-0.703125 -1.171875,0 -2.40234373,1.4765625 -2.40234373,2.9179687 0,0.984375 0.5859375,1.59375 1.31250003,1.59375 0.4335937,0 0.8203125,-0.234375 1.1835937,-0.59765625 -0.09375,0.3515625 -0.421875,1.69921875 -0.4570312,1.79296875 -0.082031,0.2695313 -0.1523438,0.3164063 -0.7148438,0.328125 -0.1289062,0 -0.2226562,0 -0.2226562,0.1992188 0,0 0,0.1054687 0.1289062,0.1054687 0.3164063,0 0.6679688,-0.035156 0.9960938,-0.035156 0.328125,0 0.6914062,0.035156 1.0195312,0.035156 0.046875,0 0.1757813,0 0.1757813,-0.1992187 0,-0.1054688 -0.09375,-0.1054688 -0.2578125,-0.1054688 -0.46875,0 -0.46875,-0.070312 -0.46875,-0.1640625 0,-0.070312 0.011719,-0.1289062 0.035156,-0.2226562 z m -2.7539063,4.1835937 c -0.5976562,0 -0.6445312,-0.7734375 -0.6445312,-0.9375 0,-0.4804687 0.2929687,-1.5703125 0.4570312,-1.9804687 0.3164063,-0.7382813 0.8320313,-1.1601563 1.2421875,-1.1601563 0.6445313,0 0.7851563,0.8085938 0.7851563,0.8789063 0,0.058594 -0.5507813,2.2382812 -0.5742188,2.2734375 -0.1523437,0.28124995 -0.7148437,0.9257812 -1.265625,0.9257812 z m 0,0"
       style="fill:#000000;fill-opacity:1;fill-rule:nonzero;stroke:none"
       aria-label="q"
       transform="matrix(1.3333333,0,0,1.3333333,172.41333,87.545333)" />
    <path
       id="path9"
       d="m 2.3328437,-4.4283906 c 0,-0.1875 -0.011719,-0.1992188 -0.2109375,-0.1992188 -0.4453125,0.4335938 -1.078125,0.4453125 -1.35937495,0.4453125 v 0.2460938 c 0.1640625,0 0.62109375,0 1.00781245,-0.1875 v 3.55078123 c 0,0.234375 0,0.328125 -0.6914062,0.328125 H 0.80940625 v 0.24609375 c 0.12890625,-0.01171875 0.98437495,-0.0234375 1.24218745,-0.0234375 0.2109375,0 1.0898438,0.01171875 1.2421875,0.0234375 V -0.24479687 H 3.0359687 c -0.703125,0 -0.703125,-0.09375 -0.703125,-0.328125 z m 0,0"
       style="fill:#000000;fill-opacity:1;fill-rule:nonzero;stroke:none"
       aria-label="1"
       transform="matrix(1.3333333,0,0,1.3333333,178.34267,89.537333)" />
    <path
       id="path10"
       d="m 155.90749,0 c 0,7.82784 -6.34555,14.17339 -14.1734,14.17339 -7.82786,0 -14.17341,-6.34555 -14.17341,-14.17339 0,-7.82784 6.34555,-14.17339 14.17341,-14.17339 7.82785,0 14.1734,6.34555 14.1734,14.17339 z"
       style="fill:none;stroke:#000000;stroke-width:0.3985;stroke-linecap:butt;stroke-linejoin:miter;stroke-miterlimit:10;stroke-dasharray:none;stroke-opacity:1"
       transform="matrix(1.3333333,0,0,-1.3333333,83.869333,85.977333)" />
    <path
       id="path11"
       d="m 4.5007578,-4.2879062 c 0,-0.046875 -0.023437,-0.1054688 -0.09375,-0.1054688 -0.1171875,0 -0.515625,0.3984375 -0.6796875,0.6914063 -0.2226562,-0.5390625 -0.609375,-0.703125 -0.9257812,-0.703125 -1.171875,0 -2.40234379,1.4765625 -2.40234379,2.9179687 0,0.984375 0.5859375,1.59375 1.31249999,1.59375 0.4335938,0 0.8203125,-0.234375 1.1835938,-0.59765625 -0.09375,0.3515625 -0.421875,1.69921875 -0.4570313,1.79296875 -0.082031,0.2695313 -0.1523437,0.3164063 -0.7148437,0.328125 -0.1289063,0 -0.2226563,0 -0.2226563,0.1992188 0,0 0,0.1054687 0.1289063,0.1054687 0.3164062,0 0.6679687,-0.035156 0.9960937,-0.035156 0.328125,0 0.6914063,0.035156 1.0195313,0.035156 0.046875,0 0.1757812,0 0.1757812,-0.1992187 0,-0.1054688 -0.09375,-0.1054688 -0.2578125,-0.1054688 -0.46875,0 -0.46875,-0.070312 -0.46875,-0.1640625 0,-0.070312 0.011719,-0.1289062 0.035156,-0.2226562 z m -2.7539062,4.1835937 c -0.5976563,0 -0.6445313,-0.7734375 -0.6445313,-0.9375 0,-0.4804687 0.2929688,-1.5703125 0.4570313,-1.9804687 0.3164062,-0.7382813 0.8320312,-1.1601563 1.2421875,-1.1601563 0.6445312,0 0.7851562,0.8085938 0.7851562,0.8789063 0,0.058594 -0.5507812,2.2382812 -0.5742187,2.2734375 -0.1523438,0.28124995 -0.7148438,0.9257812 -1.265625,0.9257812 z m 0,0"
       style="fill:#000000;fill-opacity:1;fill-rule:nonzero;stroke:none"
       aria-label="q"
       transform="matrix(1.3333333,0,0,1.3333333,266.90133,87.545333)" />
    <path
       id="path12"
       d="m 3.5166484,-1.2643281 h -0.234375 c -0.023437,0.1523437 -0.082031,0.56249998 -0.1757812,0.63281248 -0.058594,0.0351563 -0.5976563,0.0351563 -0.6914063,0.0351563 H 1.1260234 c 0.7382813,-0.64453118 0.984375,-0.84374998 1.3945313,-1.17187498 0.515625,-0.4101563 0.9960937,-0.8437501 0.9960937,-1.5000001 0,-0.8437499 -0.7382812,-1.3593749 -1.6289062,-1.3593749 -0.8671875,0 -1.45312501,0.609375 -1.45312501,1.2421874 0,0.3632813 0.3046875,0.3984375 0.375,0.3984375 0.1640625,0 0.37500001,-0.1171875 0.37500001,-0.375 0,-0.1289062 -0.058594,-0.3632812 -0.42187501,-0.3632812 0.22265625,-0.5039062 0.69140621,-0.6562499 1.01953121,-0.6562499 0.703125,0 1.0664063,0.5507812 1.0664063,1.1132812 0,0.609375 -0.4335938,1.0898438 -0.65625,1.3359375 l -1.68750001,1.66406248 c -0.0703125,0.0585938 -0.0703125,0.0703125 -0.0703125,0.26953125 H 3.3174297 Z m 0,0"
       style="fill:#000000;fill-opacity:1;fill-rule:nonzero;stroke:none"
       aria-label="2"
       transform="matrix(1.3333333,0,0,1.3333333,272.83067,89.537333)" />
    <path
       id="path13"
       d="m 226.77454,0 c 0,7.82784 -6.34555,14.17339 -14.1734,14.17339 -7.82786,0 -14.17341,-6.34555 -14.17341,-14.17339 0,-7.82784 6.34555,-14.17339 14.17341,-14.17339 7.82785,0 14.1734,6.34555 14.1734,14.17339 z"
       style="fill:none;stroke:#000000;stroke-width:1.39478;stroke-linecap:butt;stroke-linejoin:miter;stroke-miterlimit:10;stroke-dasharray:none;stroke-opacity:1"
       transform="matrix(1.3333333,0,0,-1.3333333,83.869333,85.977333)" />
    <path
       id="path14"
       d="m 226.77454,0 c 0,7.82784 -6.34555,14.17339 -14.1734,14.17339 -7.82786,0 -14.17341,-6.34555 -14.17341,-14.17339 0,-7.82784 6.34555,-14.17339 14.17341,-14.17339 7.82785,0 14.1734,6.34555 14.1734,14.17339 z"
       style="fill:none;stroke:#ffffff;stroke-width:0.59776;stroke-linecap:butt;stroke-linejoin:miter;stroke-miterlimit:10;stroke-dasharray:none;stroke-opacity:1"
       transform="matrix(1.3333333,0,0,-1.3333333,83.869333,85.977333)" />
    <path
       id="path15"
       d="m 4.5009688,-4.2879062 c 0,-0.046875 -0.023437,-0.1054688 -0.09375,-0.1054688 -0.1171875,0 -0.515625,0.3984375 -0.6796875,0.6914063 -0.2226563,-0.5390625 -0.609375,-0.703125 -0.9257813,-0.703125 -1.171875,0 -2.40234375,1.4765625 -2.40234375,2.9179687 0,0.984375 0.5859375,1.59375 1.31250005,1.59375 C 2.1455,0.106625 2.5322188,-0.12775 2.8955,-0.49103125 2.80175,-0.13946875 2.473625,1.2081875 2.4384688,1.3019375 2.3564375,1.5714688 2.286125,1.6183438 1.723625,1.6300625 c -0.1289062,0 -0.2226562,0 -0.2226562,0.1992188 0,0 0,0.1054687 0.1289062,0.1054687 0.3164063,0 0.6679688,-0.035156 0.9960938,-0.035156 0.328125,0 0.6914062,0.035156 1.0195312,0.035156 0.046875,0 0.1757813,0 0.1757813,-0.1992187 0,-0.1054688 -0.09375,-0.1054688 -0.2578125,-0.1054688 -0.46875,0 -0.46875,-0.070312 -0.46875,-0.1640625 0,-0.070312 0.011719,-0.1289062 0.035156,-0.2226562 z m -2.7539063,4.1835937 c -0.5976562,0 -0.6445312,-0.7734375 -0.6445312,-0.9375 0,-0.4804687 0.2929687,-1.5703125 0.4570312,-1.9804687 0.3164063,-0.7382813 0.8320313,-1.1601563 1.2421875,-1.1601563 0.6445313,0 0.7851563,0.8085938 0.7851563,0.8789063 0,0.058594 -0.5507813,2.2382812 -0.5742188,2.2734375 -0.1523437,0.28124995 -0.7148437,0.9257812 -1.265625,0.9257812 z m 0,0"
       style="fill:#000000;fill-opacity:1;fill-rule:nonzero;stroke:none"
       aria-label="q"
       transform="matrix(1.3333333,0,0,1.3333333,361.38933,87.545333)" />
    <path
       id="path16"
       d="m 1.8986719,-2.3307344 c 0.5507812,0 0.9375,0.375 0.9375,1.125 0,0.86718753 -0.5039063,1.12500003 -0.9023438,1.12500003 -0.28125,0 -0.890625,-0.08203125 -1.18359372,-0.4921875 0.32812502,-0.0117188 0.39843752,-0.24609375 0.39843752,-0.38671875 0,-0.22265628 -0.16406252,-0.38671878 -0.38671877,-0.38671878 -0.1875,0 -0.38671875,0.1171875 -0.38671875,0.41015628 0,0.65625 0.72656252,1.078125 1.57031252,1.078125 0.9726562,0 1.640625,-0.64453125 1.640625,-1.34765628 0,-0.5390625 -0.4453125,-1.0898437 -1.21875,-1.2421875 0.7382812,-0.2695312 0.9960937,-0.796875 0.9960937,-1.21875 0,-0.5507812 -0.6328125,-0.9609375 -1.40625,-0.9609375 -0.7734375,0 -1.35937497,0.375 -1.35937497,0.9375 0,0.234375 0.15234375,0.3632813 0.36328125,0.3632813 0.21093752,0 0.35156252,-0.1640625 0.35156252,-0.3515625 0,-0.1992188 -0.140625,-0.3515625 -0.35156252,-0.3632813 0.23437502,-0.3046875 0.71484372,-0.3867187 0.97265622,-0.3867187 0.3164063,0 0.7617188,0.1523437 0.7617188,0.7617187 0,0.2929688 -0.1054688,0.609375 -0.28125,0.8320313 -0.234375,0.2578125 -0.421875,0.28125 -0.7734375,0.2929687 -0.1757813,0.023437 -0.1875,0.023437 -0.2226563,0.023437 -0.011719,0 -0.070312,0.011719 -0.070312,0.09375 0,0.09375 0.058594,0.09375 0.1757813,0.09375 z m 0,0"
       style="fill:#000000;fill-opacity:1;fill-rule:nonzero;stroke:none"
       aria-label="3"
       transform="matrix(1.3333333,0,0,1.3333333,367.32,89.537333)" />
    <path
       id="path17"
       d="m 135.15105,50.11061 c 0,7.82785 -6.34554,14.1734 -14.17339,14.1734 -7.82785,0 -14.1734,-6.34555 -14.1734,-14.1734 0,-7.82785 6.34555,-14.1734 14.1734,-14.1734 7.82785,0 14.17339,6.34555 14.17339,14.1734 z"
       style="fill:none;stroke:#000000;stroke-width:0.3985;stroke-linecap:butt;stroke-linejoin:miter;stroke-miterlimit:10;stroke-dasharray:none;stroke-opacity:1"
       transform="matrix(1.3333333,0,0,-1.3333333,83.869333,85.977333)" />
    <path
       id="path18"
       d="m 4.4999219,-4.2902109 c 0,-0.046875 -0.023437,-0.1054688 -0.09375,-0.1054688 -0.1171875,0 -0.515625,0.3984375 -0.6796875,0.6914063 -0.2226563,-0.5390625 -0.609375,-0.703125 -0.9257813,-0.703125 -1.171875,0 -2.40234372,1.4765625 -2.40234372,2.9179687 0,0.98437501 0.5859375,1.59375001 1.31250002,1.59375001 0.4335937,0 0.8203125,-0.234375 1.1835937,-0.59765625 -0.09375,0.3515625 -0.421875,1.69921874 -0.4570312,1.79296874 -0.082031,0.2695313 -0.1523438,0.3164063 -0.7148438,0.328125 -0.1289062,0 -0.2226562,0 -0.2226562,0.1992188 0,0 0,0.1054687 0.1289062,0.1054687 0.3164063,0 0.6679688,-0.035156 0.9960938,-0.035156 0.328125,0 0.6914062,0.035156 1.0195312,0.035156 0.046875,0 0.1757813,0 0.1757813,-0.1992187 0,-0.1054688 -0.09375,-0.1054688 -0.2578125,-0.1054688 -0.46875,0 -0.46875,-0.070312 -0.46875,-0.1640625 0,-0.070312 0.011719,-0.1289062 0.035156,-0.2226562 z m -2.7539063,4.18359371 c -0.5976562,0 -0.6445312,-0.7734375 -0.6445312,-0.93750001 0,-0.4804687 0.2929687,-1.5703125 0.4570312,-1.9804687 0.3164063,-0.7382813 0.8320313,-1.1601563 1.2421875,-1.1601563 0.6445313,0 0.7851563,0.8085938 0.7851563,0.8789063 0,0.058594 -0.5507813,2.2382812 -0.5742188,2.2734375 -0.1523437,0.28124996 -0.7148437,0.92578121 -1.265625,0.92578121 z m 0,0"
       style="fill:#000000;fill-opacity:1;fill-rule:nonzero;stroke:none"
       aria-label="q"
       transform="matrix(1.3333333,0,0,1.3333333,239.22667,20.732)" />
    <path
       id="path19"
       d="M 3.6915938,-1.1494453 V -1.3955391 H 2.9181563 v -3.1054687 c 0,-0.1523438 0,-0.1992188 -0.1523438,-0.1992188 -0.09375,0 -0.1171875,0 -0.1875,0.09375 l -2.30859375,3.2109375 v 0.2460938 H 2.3205 v 0.57421874 c 0,0.234375 0,0.328125 -0.5625,0.328125 H 1.5705 v 0.24609375 c 0.3515625,-0.01171875 0.796875,-0.0234375 1.0429688,-0.0234375 0.2578125,0 0.703125,0.01171875 1.0546875,0.0234375 v -0.24609375 h -0.1875 c -0.5625,0 -0.5625,-0.09375 -0.5625,-0.328125 V -1.1494453 Z M 2.367375,-3.9502266 v 2.5546875 H 0.52753125 Z m 0,0"
       style="fill:#000000;fill-opacity:1;fill-rule:nonzero;stroke:none"
       aria-label="4"
       transform="matrix(1.3333333,0,0,1.3333333,245.156,22.724)" />
    <path
       id="path20"
       d="M 14.37263,0 H 56.03612"
       style="fill:none;stroke:#000000;stroke-width:0.3985;stroke-linecap:butt;stroke-linejoin:miter;stroke-miterlimit:10;stroke-dasharray:none;stroke-opacity:1"
       transform="matrix(1.3333333,0,0,-1.3333333,83.869333,85.977333)" />
    <path
       id="path21"
       d="M -1.19551,1.59401 C -1.09587,0.99626 0,0.09961 0.29886,0 0,-0.09961 -1.09587,-0.99626 -1.19551,-1.59401"
       style="fill:none;stroke:#000000;stroke-width:0.31879;stroke-linecap:round;stroke-linejoin:round;stroke-miterlimit:10;stroke-dasharray:none;stroke-opacity:1"
       transform="matrix(1.3333333,0,0,-1.3333333,158.58416,85.977333)" />
    <path
       id="path22"
       d="m 6.6223281,-2.3201719 c 0,-0.1054687 0,-0.1757812 -0.1289062,-0.1757812 -0.1054688,0 -0.1054688,0.070312 -0.1171875,0.1640625 -0.082031,1.42968748 -1.1484375,2.23828123 -2.2265625,2.23828123 -0.609375,0 -2.5664063,-0.33984375 -2.5664063,-3.30468753 0,-2.9765625 1.9453125,-3.3164062 2.5546875,-3.3164062 1.078125,0 1.96875,0.9023437 2.1679688,2.3671875 0.023437,0.1289062 0.023437,0.1640625 0.1640625,0.1640625 0.1523437,0 0.1523437,-0.035156 0.1523437,-0.234375 v -2.3671875 c 0,-0.1640625 0,-0.234375 -0.1054687,-0.234375 -0.035156,0 -0.082031,0 -0.1640625,0.1171875 l -0.4921875,0.7382812 c -0.375,-0.3632812 -0.8789063,-0.8554687 -1.8398438,-0.8554687 -1.8632812,0 -3.45703123,1.5820312 -3.45703123,3.609375 0,2.0625 1.60546873,3.63281248 3.45703123,3.63281248 1.6289063,0 2.6015625,-1.38281248 2.6015625,-2.54296878 z m 0,0"
       style="fill:#000000;fill-opacity:1;fill-rule:nonzero;stroke:none"
       aria-label="C"
       transform="matrix(1.3333333,0,0,1.3333333,126.31867,80.992)" />
    <path
       id="path23"
       d="m 8.74889,11.40208 c 25.22198,32.86969 56.90284,45.99219 97.52549,40.64408"
       style="fill:none;stroke:#000000;stroke-width:0.3985;stroke-linecap:butt;stroke-linejoin:miter;stroke-miterlimit:10;stroke-dasharray:none;stroke-opacity:1"
       transform="matrix(1.3333333,0,0,-1.3333333,83.869333,85.977333)" />
    <path
       id="path24"
       d="M -1.19551,1.59401 C -1.09587,0.99626 0,0.09961 0.29886,0 0,-0.09961 -1.09587,-0.99626 -1.19551,-1.59401"
       style="fill:none;stroke:#000000;stroke-width:0.31879;stroke-linecap:round;stroke-linejoin:round;stroke-miterlimit:10;stroke-dasharray:none;stroke-opacity:1"
       transform="matrix(1.3218667,0.17401333,0.17401333,-1.3218667,225.56849,16.58244)" />
    <path
       id="path25"
       d="m 3.5859375,-1.2767031 c 0,-0.5273438 -0.2929687,-0.8203125 -0.421875,-0.9492188 -0.328125,-0.3164062 -0.7148437,-0.3984375 -1.1367187,-0.46875 -0.5507813,-0.1171875 -1.21875005,-0.2460937 -1.21875005,-0.8203125 0,-0.3515625 0.25781245,-0.7617187 1.11328125,-0.7617187 1.1015625,0 1.1484375,0.9023437 1.171875,1.2070312 0,0.09375 0.1171875,0.09375 0.1171875,0.09375 0.1289063,0 0.1289063,-0.046875 0.1289063,-0.2460937 v -0.9960938 c 0,-0.1757812 0,-0.2460937 -0.1171875,-0.2460937 -0.046875,0 -0.070312,0 -0.1992188,0.1171875 C 3,-4.3001406 2.8945313,-4.2181094 2.859375,-4.1829531 c -0.375,-0.28125 -0.7851562,-0.28125 -0.9375,-0.28125 -1.21875,0 -1.59375,0.6679687 -1.59375,1.2304687 0,0.3398438 0.1640625,0.6210938 0.43359375,0.84375 0.31640625,0.2578125 0.59765625,0.3164063 1.31250005,0.4570313 0.2226562,0.035156 1.03125,0.1992187 1.03125,0.9140625 0,0.51562497 -0.3515625,0.91406247 -1.1250001,0.91406247 -0.8320312,0 -1.19531245,-0.57421875 -1.38281245,-1.41796877 C 0.5625,-1.6517031 0.5625,-1.6985781 0.45703125,-1.6985781 c -0.12890625,0 -0.12890625,0.070312 -0.12890625,0.2578125 v 1.31249997 c 0,0.1640625 0,0.234375 0.10546875,0.234375 0.0585938,0 0.0703125,0 0.2578125,-0.19921875 0.0117188,-0.01171875 0.0117188,-0.03515625 0.19921875,-0.22265625 0.4335937,0.421875 0.8789062,0.421875 1.0898437,0.421875 1.1484376,0 1.6054688,-0.66796875 1.6054688,-1.38281247 z m 0,0"
       style="fill:#000000;fill-opacity:1;fill-rule:nonzero;stroke:none"
       aria-label="s"
       transform="matrix(1.3333333,0,0,1.3333333,143,19.741333)" />
    <path
       id="path26"
       d="M 110.81467,39.94762 81.35408,10.48703"
       style="fill:none;stroke:#000000;stroke-width:0.3985;stroke-linecap:butt;stroke-linejoin:miter;stroke-miterlimit:10;stroke-dasharray:none;stroke-opacity:1"
       transform="matrix(1.3333333,0,0,-1.3333333,83.869333,85.977333)" />
    <path
       id="path27"
       d="M -1.19551,1.59401 C -1.09587,0.99626 0,0.09961 0.29886,0 0,-0.09961 -1.09587,-0.99626 -1.19551,-1.59401"
       style="fill:none;stroke:#000000;stroke-width:0.31879;stroke-linecap:round;stroke-linejoin:round;stroke-miterlimit:10;stroke-dasharray:none;stroke-opacity:1"
       transform="matrix(-0.9428,0.9428,0.9428,0.9428,192.34144,71.994627)" />
    <path
       id="path28"
       d="M 3.3044609,-1.2292734 V -1.8034922 H 3.0583672 v 0.5507813 c 0,0.73828121 -0.3046875,1.11328121 -0.6679688,1.11328121 -0.6679687,0 -0.6679687,-0.90234371 -0.6679687,-1.07812501 v -2.765625 H 3.1521172 V -4.2878672 H 1.7224297 V -6.1277109 H 1.4763359 c -0.011719,0.8203125 -0.3164062,1.8867187 -1.28906246,1.921875 v 0.2226562 H 1.0310234 v 2.7539063 c 0,1.21874996 0.9257813,1.33593746 1.2890625,1.33593746 0.703125,0 0.984375,-0.703125 0.984375,-1.33593746 z m 2.5986328,1.21874996 c 0,-0.6328125 -0.2460937,-1.04296876 -0.6445312,-1.04296876 -0.3515625,0 -0.5273438,0.26953126 -0.5273438,0.52734376 0,0.2578125 0.1757813,0.52734375 0.5273438,0.52734375 0.1523437,0 0.2929687,-0.05859375 0.3984375,-0.1640625 0.023437,0.796875 -0.2578125,1.39453129 -0.6914063,1.86328129 -0.058594,0.058594 -0.070312,0.070312 -0.070312,0.1171875 0,0.070312 0.046875,0.1054687 0.09375,0.1054687 0.1171875,0 0.9140625,-0.7851562 0.914062,-1.93359374 z M 15.155047,-2.1550547 c 0,-1.265625 -0.972656,-2.25 -2.085938,-2.25 -0.773437,0 -1.195312,0.4453125 -1.394531,0.65625 v -0.65625 l -1.429687,0.1171875 v 0.3046875 c 0.703125,0 0.773437,0.058594 0.773437,0.4921875 v 4.6640625 c 0,0.4570313 -0.105469,0.4570313 -0.773437,0.4570313 v 0.3046875 l 1.113281,-0.035156 1.125,0.035156 V 1.6301016 c -0.667969,0 -0.773438,0 -0.773438,-0.4570313 v -1.75781249 c 0.04687,0.15234375 0.46875,0.69140625 1.21875,0.69140625 1.183594,0 2.226563,-0.97265625 2.226563,-2.26171876 z m -0.832031,0 c 0,1.20703126 -0.691407,2.05078126 -1.429688,2.05078126 -0.398437,0 -0.773437,-0.19921875 -1.042969,-0.609375 -0.140625,-0.2109375 -0.140625,-0.22265625 -0.140625,-0.42187496 v -2.2148438 c 0.28125,-0.515625 0.773438,-0.796875 1.277344,-0.796875 0.726563,0 1.335938,0.8671875 1.335938,1.9921875 z m 0,0"
       style="fill:#000000;fill-opacity:1;fill-rule:nonzero;stroke:none"
       aria-label="t,p"
       transform="matrix(1.3333333,0,0,1.3333333,216.45733,65.432)" />
    <path
       id="path29"
       d="M 70.86703,0 V 0.45827"
       style="fill:none;stroke:#000000;stroke-width:0.3985;stroke-linecap:butt;stroke-linejoin:miter;stroke-miterlimit:10;stroke-dasharray:none;stroke-opacity:1"
       transform="matrix(1.3333333,0,0,-1.3333333,83.869333,85.977333)" />
    <path
       id="path30"
       d="M -1.19551,1.59401 C -1.09587,0.99626 0,0.09961 0.29886,0 0,-0.09961 -1.09587,-0.99626 -1.19551,-1.59401"
       style="fill:none;stroke:#000000;stroke-width:0.31879;stroke-linecap:round;stroke-linejoin:round;stroke-miterlimit:10;stroke-dasharray:none;stroke-opacity:1"
       transform="matrix(0,-1.3333333,-1.3333333,0,178.35871,86.58836)" />
    <path
       id="path31"
       d="m 3.6211484,-3.7963594 c 0,-0.3164062 -0.3046875,-0.609375 -0.7265625,-0.609375 -0.7382812,0 -1.0898437,0.6679688 -1.2304687,1.1015625 v -1.1015625 l -1.38281251,0.1171875 v 0.3046875 c 0.69140625,0 0.77343751,0.070312 0.77343751,0.5625 v 2.66015627 c 0,0.45703125 -0.10546876,0.45703125 -0.77343751,0.45703125 V 5.15625e-4 L 1.4180234,-0.03464063 c 0.3984375,0 0.8671875,0 1.265625,0.035156255 V -0.30417188 H 2.4727109 c -0.7382812,0 -0.7617187,-0.1171875 -0.7617187,-0.46875 V -2.3080781 c 0,-0.984375 0.421875,-1.875 1.1835937,-1.875 0.058594,0 0.082031,0 0.1054688,0.011719 -0.035156,0.011719 -0.234375,0.1289063 -0.234375,0.3867188 0,0.28125 0.2109375,0.4335937 0.4335937,0.4335937 0.1757813,0 0.421875,-0.1289062 0.421875,-0.4453128 z m 2.3115235,3.78515627 c 0,-0.6328125 -0.2460938,-1.04296877 -0.6445313,-1.04296877 -0.3515625,0 -0.5273437,0.26953127 -0.5273437,0.52734377 0,0.2578125 0.1757812,0.527343755 0.5273437,0.527343755 0.1523438,0 0.2929688,-0.058593755 0.3984375,-0.164062505 0.023437,0.796875 -0.2578125,1.39453128 -0.6914062,1.86328128 -0.058594,0.058594 -0.070312,0.070312 -0.070312,0.1171875 0,0.070312 0.046875,0.1054687 0.09375,0.1054687 0.1171875,0 0.9140625,-0.7851562 0.914062,-1.93359373 z M 12.536188,5.15625e-4 V -0.30417188 c -0.667969,0 -0.785157,0 -0.785157,-0.45703125 V -6.9135469 l -1.429687,0.1054688 v 0.3164062 c 0.703125,0 0.773437,0.070312 0.773437,0.5507813 v 5.17968747 c 0,0.45703125 -0.105468,0.45703125 -0.773437,0.45703125 V 5.15625e-4 l 1.101562,-0.035156255 z m 2.252929,-0.011718755 c 0,-0.6328125 -0.246094,-1.04296877 -0.644531,-1.04296877 -0.351563,0 -0.527344,0.26953127 -0.527344,0.52734377 0,0.2578125 0.175781,0.527343755 0.527344,0.527343755 0.152344,0 0.292969,-0.058593755 0.398437,-0.164062505 0.02344,0.796875 -0.257812,1.39453128 -0.691406,1.86328128 -0.05859,0.058594 -0.07031,0.070312 -0.07031,0.1171875 0,0.070312 0.04687,0.1054687 0.09375,0.1054687 0.117187,0 0.914062,-0.7851562 0.914062,-1.93359373 z m 11.06836,-3.97265627 v -0.3046875 c -0.222657,0.011719 -0.515625,0.023437 -0.726563,0.023437 l -0.9375,-0.023437 v 0.3046875 c 0.363281,0.011719 0.585938,0.1875 0.585938,0.4804688 0,0.058594 0,0.082031 -0.04687,0.2109375 l -0.914063,2.54296872 -0.984375,-2.77734372 c -0.03516,-0.1171875 -0.04687,-0.140625 -0.04687,-0.1875 0,-0.2695313 0.386719,-0.2695313 0.585938,-0.2695313 v -0.3046875 l -1.03125,0.023437 c -0.304688,0 -0.597657,-0.011719 -0.890625,-0.023437 v 0.3046875 c 0.363281,0 0.527343,0.023437 0.621093,0.1523438 0.05859,0.058594 0.164063,0.3515625 0.234375,0.5390625 l -0.855468,2.41406247 -0.949219,-2.66015627 c -0.04687,-0.1171875 -0.04687,-0.140625 -0.04687,-0.1757812 0,-0.2695313 0.386719,-0.2695313 0.585937,-0.2695313 v -0.3046875 l -1.089843,0.023437 -0.925782,-0.023437 v 0.3046875 c 0.503907,0 0.621094,0.035156 0.738282,0.3515625 l 1.253906,3.52734377 c 0.05859,0.140625 0.08203,0.2109375 0.210937,0.2109375 0.128907,0 0.152344,-0.05859375 0.199219,-0.19921875 l 1.007813,-2.81250002 1.019531,2.82421877 c 0.03516,0.1171875 0.07031,0.1875 0.199219,0.1875 0.128906,0 0.152343,-0.08203125 0.199218,-0.1875 l 1.160157,-3.26953127 c 0.175781,-0.4921875 0.492187,-0.6210937 0.84375,-0.6328125 z m 0,0"
       style="fill:#000000;fill-opacity:1;fill-rule:nonzero;stroke:none"
       aria-label="r,l,w"
       transform="matrix(1.3333333,0,0,1.3333333,138.94133,89.304)" />
    <path
       id="path32"
       d="m 85.23969,0 h 41.66346"
       style="fill:none;stroke:#000000;stroke-width:0.3985;stroke-linecap:butt;stroke-linejoin:miter;stroke-miterlimit:10;stroke-dasharray:none;stroke-opacity:1"
       transform="matrix(1.3333333,0,0,-1.3333333,83.869333,85.977333)" />
    <path
       id="path33"
       d="M -1.19551,1.59401 C -1.09587,0.99626 0,0.09961 0.29886,0 0,-0.09961 -1.09587,-0.99626 -1.19551,-1.59401"
       style="fill:none;stroke:#000000;stroke-width:0.31879;stroke-linecap:round;stroke-linejoin:round;stroke-miterlimit:10;stroke-dasharray:none;stroke-opacity:1"
       transform="matrix(1.3333333,0,0,-1.3333333,253.07353,85.977333)" />
    <path
       id="path34"
       d="m 7.2781641,-6.4920469 v -0.3164062 c -0.3164063,0.023437 -0.7148438,0.035156 -0.9726563,0.035156 l -1.1367187,-0.035156 v 0.3164062 c 0.515625,0.011719 0.7265625,0.2695313 0.7265625,0.4921875 0,0.082031 -0.023437,0.140625 -0.046875,0.1992188 L 4.0203516,-0.99595312 2.1219141,-6.0232969 c -0.058594,-0.140625 -0.058594,-0.1875 -0.058594,-0.1875 0,-0.28125 0.5625,-0.28125 0.8203125,-0.28125 v -0.3164062 c -0.3632812,0.035156 -1.0546875,0.035156 -1.4296875,0.035156 l -1.26562499,-0.035156 v 0.3164062 c 0.64453125,0 0.84374999,0 0.97265629,0.375 L 3.4812891,1.40625e-4 c 0.070312,0.187500005 0.1171875,0.222656255 0.2460937,0.222656255 0.1640625,0 0.1875,-0.0585938 0.234375,-0.1875 L 6.1883203,-5.8240781 c 0.140625,-0.375 0.4101563,-0.65625 1.0898438,-0.6679688 z m 0,0"
       style="fill:#000000;fill-opacity:1;fill-rule:nonzero;stroke:none"
       aria-label="V"
       transform="matrix(1.3333333,0,0,1.3333333,220.62,80.992)" />
    <path
       id="path35"
       d="M 13.8829,3.71948 C 56.81287,15.22252 84.9212,15.22252 127.40852,3.83807"
       style="fill:none;stroke:#000000;stroke-width:0.3985;stroke-linecap:butt;stroke-linejoin:miter;stroke-miterlimit:10;stroke-dasharray:none;stroke-opacity:1"
       transform="matrix(1.3333333,0,0,-1.3333333,83.869333,85.977333)" />
    <path
       id="path36"
       d="M -1.19551,1.59401 C -1.09587,0.99626 0,0.09961 0.29886,0 0,-0.09961 -1.09587,-0.99626 -1.19551,-1.59401"
       style="fill:none;stroke:#000000;stroke-width:0.31879;stroke-linecap:round;stroke-linejoin:round;stroke-miterlimit:10;stroke-dasharray:none;stroke-opacity:1"
       transform="matrix(1.2879067,0.34505333,0.34505333,-1.2879067,253.74736,80.859907)" />
    <path
       id="path37"
       d="M 7.2765938,-6.49075 V -6.8071563 C 6.9601875,-6.7837188 6.56175,-6.772 6.3039375,-6.772 L 5.1672188,-6.8071563 V -6.49075 c 0.515625,0.011719 0.7265625,0.2695312 0.7265625,0.4921875 0,0.082031 -0.023437,0.140625 -0.046875,0.1992187 L 4.0187813,-0.99465625 2.1203438,-6.022 C 2.06175,-6.162625 2.06175,-6.2095 2.06175,-6.2095 c 0,-0.28125 0.5625,-0.28125 0.8203125,-0.28125 V -6.8071563 C 2.5187813,-6.772 1.827375,-6.772 1.452375,-6.772 L 0.18675,-6.8071563 V -6.49075 c 0.64453125,0 0.84375,0 0.9726563,0.375 l 2.3203125,6.1171875 c 0.070312,0.1875 0.1171875,0.22265625 0.2460937,0.22265625 0.1640625,0 0.1875,-0.0585938 0.234375,-0.1875 L 6.18675,-5.8227813 c 0.140625,-0.375 0.4101563,-0.65625 1.0898438,-0.6679687 z m 0,0"
       style="fill:#000000;fill-opacity:1;fill-rule:nonzero;stroke:none"
       aria-label="V"
       transform="matrix(1.3333333,0,0,1.3333333,173.376,64.529333)" />
    <path
       id="path38"
       d="M 156.10674,0 H 197.7702"
       style="fill:none;stroke:#000000;stroke-width:0.3985;stroke-linecap:butt;stroke-linejoin:miter;stroke-miterlimit:10;stroke-dasharray:none;stroke-opacity:1"
       transform="matrix(1.3333333,0,0,-1.3333333,83.869333,85.977333)" />
    <path
       id="path39"
       d="M -1.19551,1.59401 C -1.09587,0.99626 0,0.09961 0.29886,0 0,-0.09961 -1.09587,-0.99626 -1.19551,-1.59401"
       style="fill:none;stroke:#000000;stroke-width:0.31879;stroke-linecap:round;stroke-linejoin:round;stroke-miterlimit:10;stroke-dasharray:none;stroke-opacity:1"
       transform="matrix(1.3333333,0,0,-1.3333333,347.56293,85.977333)" />
    <path
       id="path40"
       d="M 5.3309375,2.734375e-4 V -0.30441406 c -0.515625,0 -0.7734375,0 -0.7851562,-0.3046875 V -2.5075391 c 0,-0.8554687 0,-1.171875 -0.3046875,-1.5234375 -0.140625,-0.1757812 -0.46875,-0.375 -1.0429688,-0.375 -0.7265625,0 -1.1953125,0.4335938 -1.4765625,1.0546875 v -1.0546875 l -1.40625,0.1171875 v 0.3046875 c 0.703125,0 0.7851563,0.070312 0.7851563,0.5625 v 2.66015629 c 0,0.45703125 -0.11718755,0.45703125 -0.7851563,0.45703125 V 2.734375e-4 l 1.125,-0.0351562475 1.1132813,0.0351562475 V -0.30441406 c -0.65625,0 -0.7734375,0 -0.7734375,-0.45703125 V -2.5895703 c 0,-1.03125 0.7148437,-1.59375 1.3476562,-1.59375 0.6210938,0 0.7382813,0.5390625 0.7382813,1.1015625 v 2.32031249 c 0,0.45703125 -0.1171875,0.45703125 -0.7734375,0.45703125 V 2.734375e-4 l 1.125,-0.0351562475 z M 7.5662891,-0.01144531 c 0,-0.6328125 -0.2460938,-1.04296879 -0.6445313,-1.04296879 -0.3515625,0 -0.5273437,0.26953129 -0.5273437,0.52734379 0,0.2578125 0.1757812,0.5273437475 0.5273437,0.5273437475 0.1523438,0 0.2929688,-0.0585937475 0.3984375,-0.1640624975 0.023437,0.796875 -0.2578125,1.39453126 -0.6914062,1.86328126 -0.058594,0.058594 -0.070312,0.070312 -0.070312,0.1171875 0,0.070312 0.046875,0.1054687 0.09375,0.1054687 0.1171875,0 0.9140625,-0.7851562 0.914062,-1.93359371 z M 19.724492,2.734375e-4 V -0.30441406 c -0.515625,0 -0.761719,0 -0.773437,-0.3046875 V -2.5075391 c 0,-0.8554687 0,-1.171875 -0.316407,-1.5234375 -0.128906,-0.1757812 -0.46875,-0.375 -1.042968,-0.375 -0.832032,0 -1.277344,0.5976563 -1.441407,0.984375 -0.140625,-0.8671875 -0.878906,-0.984375 -1.324218,-0.984375 -0.726563,0 -1.195313,0.4335938 -1.476563,1.0546875 v -1.0546875 l -1.40625,0.1171875 v 0.3046875 c 0.703125,0 0.785156,0.070312 0.785156,0.5625 v 2.66015629 c 0,0.45703125 -0.117187,0.45703125 -0.785156,0.45703125 V 2.734375e-4 l 1.125,-0.0351562475 1.113281,0.0351562475 V -0.30441406 c -0.65625,0 -0.773437,0 -0.773437,-0.45703125 V -2.5895703 c 0,-1.03125 0.714844,-1.59375 1.347656,-1.59375 0.621094,0 0.738281,0.5390625 0.738281,1.1015625 v 2.32031249 c 0,0.45703125 -0.117187,0.45703125 -0.773437,0.45703125 V 2.734375e-4 l 1.125,-0.0351562475 1.113281,0.0351562475 V -0.30441406 c -0.667969,0 -0.785156,0 -0.785156,-0.45703125 V -2.5895703 c 0,-1.03125 0.714844,-1.59375 1.347656,-1.59375 0.632813,0 0.738281,0.5390625 0.738281,1.1015625 v 2.32031249 c 0,0.45703125 -0.105468,0.45703125 -0.773437,0.45703125 V 2.734375e-4 l 1.125,-0.0351562475 z M 21.953984,-0.01144531 c 0,-0.6328125 -0.246093,-1.04296879 -0.644531,-1.04296879 -0.351562,0 -0.527344,0.26953129 -0.527344,0.52734379 0,0.2578125 0.175782,0.5273437475 0.527344,0.5273437475 0.152344,0 0.292969,-0.0585937475 0.398438,-0.1640624975 0.02344,0.796875 -0.257813,1.39453126 -0.691407,1.86328126 -0.05859,0.058594 -0.07031,0.070312 -0.07031,0.1171875 0,0.070312 0.04687,0.1054687 0.09375,0.1054687 0.117187,0 0.914062,-0.7851562 0.914062,-1.93359371 z m 9.249024,-2.14453129 c 0,-1.265625 -0.972656,-2.25 -2.085938,-2.25 -0.773437,0 -1.195312,0.4453125 -1.394531,0.65625 v -0.65625 l -1.429687,0.1171875 v 0.3046875 c 0.703125,0 0.773437,0.058594 0.773437,0.4921875 v 4.6640625 c 0,0.4570313 -0.105469,0.4570313 -0.773437,0.4570313 v 0.3046875 l 1.113281,-0.035156 1.125,0.035156 V 1.6291797 c -0.667969,0 -0.773438,0 -0.773438,-0.4570313 v -1.75781246 c 0.04687,0.15234375 0.46875,0.69140625 1.21875,0.69140625 1.183594,0 2.226563,-0.97265625 2.226563,-2.26171879 z m -0.832031,0 c 0,1.20703129 -0.691407,2.05078129 -1.429688,2.05078129 -0.398437,0 -0.773437,-0.19921875 -1.042969,-0.609375 -0.140625,-0.2109375 -0.140625,-0.22265625 -0.140625,-0.42187499 v -2.2148438 c 0.28125,-0.515625 0.773438,-0.796875 1.277344,-0.796875 0.726563,0 1.335938,0.8671875 1.335938,1.9921875 z m 3.208007,2.14453129 c 0,-0.6328125 -0.246093,-1.04296879 -0.644531,-1.04296879 -0.351562,0 -0.527344,0.26953129 -0.527344,0.52734379 0,0.2578125 0.175782,0.5273437475 0.527344,0.5273437475 0.152344,0 0.292969,-0.0585937475 0.398438,-0.1640624975 0.02344,0.796875 -0.257813,1.39453126 -0.691407,1.86328126 -0.05859,0.058594 -0.07031,0.070312 -0.07031,0.1171875 0,0.070312 0.04687,0.1054687 0.09375,0.1054687 0.117187,0 0.914062,-0.7851562 0.914062,-1.93359371 z m 7.365235,-1.21874999 v -0.5742188 h -0.246094 v 0.5507813 c 0,0.73828124 -0.304687,1.11328124 -0.667969,1.11328124 -0.667968,0 -0.667968,-0.90234374 -0.667968,-1.07812504 v -2.765625 h 1.429687 v -0.3046875 h -1.429687 v -1.8398437 h -0.246094 c -0.01172,0.8203125 -0.316406,1.8867187 -1.289063,1.921875 v 0.2226562 h 0.84375 v 2.7539063 c 0,1.21874999 0.925782,1.33593749 1.289063,1.33593749 0.703125,0 0.984375,-0.703125 0.984375,-1.33593749 z m 2.598633,1.21874999 c 0,-0.6328125 -0.246094,-1.04296879 -0.644532,-1.04296879 -0.351562,0 -0.527343,0.26953129 -0.527343,0.52734379 0,0.2578125 0.175781,0.5273437475 0.527343,0.5273437475 0.152344,0 0.292969,-0.0585937475 0.398438,-0.1640624975 0.02344,0.796875 -0.257813,1.39453126 -0.691406,1.86328126 -0.05859,0.058594 -0.07031,0.070312 -0.07031,0.1171875 0,0.070312 0.04687,0.1054687 0.09375,0.1054687 0.117188,0 0.914063,-0.7851562 0.914063,-1.93359371 z M 52.686406,2.734375e-4 V -0.30441406 c -0.363281,0 -0.585937,0 -0.960937,-0.52734375 L 50.459844,-2.6247266 c -0.01172,-0.011719 -0.05859,-0.070312 -0.05859,-0.1054687 0,-0.035156 0.703125,-0.6328125 0.808594,-0.7148438 0.621094,-0.5039062 1.042969,-0.5273437 1.253906,-0.5390625 v -0.3046875 c -0.292969,0.023437 -0.421875,0.023437 -0.703125,0.023437 -0.351562,0 -0.972656,-0.023437 -1.113281,-0.023437 v 0.3046875 c 0.1875,0.011719 0.292969,0.1171875 0.292969,0.2460938 0,0.1992187 -0.140625,0.3164062 -0.222657,0.3867187 l -1.40625,1.21875 v -4.78125 l -1.429687,0.1054688 v 0.3164062 c 0.691406,0 0.773437,0.070312 0.773437,0.5507813 v 5.17968749 c 0,0.45703125 -0.105468,0.45703125 -0.773437,0.45703125 V 2.734375e-4 L 48.959844,-0.03488281 50.061406,2.734375e-4 V -0.30441406 c -0.667968,0 -0.773437,0 -0.773437,-0.45703125 V -1.7809766 l 0.632812,-0.5507812 c 0.773438,1.0546875 1.183594,1.61718749 1.183594,1.79296874 0,0.1875 -0.164062,0.234375 -0.351562,0.234375 V 2.734375e-4 L 51.819219,-0.03488281 c 0.292969,0 0.585937,0.01171875 0.867187,0.0351562475 z M 54.889531,-0.01144531 c 0,-0.6328125 -0.246093,-1.04296879 -0.644531,-1.04296879 -0.351562,0 -0.527344,0.26953129 -0.527344,0.52734379 0,0.2578125 0.175782,0.5273437475 0.527344,0.5273437475 0.152344,0 0.292969,-0.0585937475 0.398438,-0.1640624975 0.02344,0.796875 -0.257813,1.39453126 -0.691407,1.86328126 -0.05859,0.058594 -0.07031,0.070312 -0.07031,0.1171875 0,0.070312 0.04687,0.1054687 0.09375,0.1054687 0.117187,0 0.914062,-0.7851562 0.914062,-1.93359371 z m 7.646485,-1.26562499 c 0,-0.5273438 -0.292969,-0.8203125 -0.421875,-0.9492188 -0.328125,-0.3164062 -0.714844,-0.3984375 -1.136719,-0.46875 -0.550781,-0.1171875 -1.21875,-0.2460937 -1.21875,-0.8203125 0,-0.3515625 0.257812,-0.7617187 1.113281,-0.7617187 1.101563,0 1.148438,0.9023437 1.171875,1.2070312 0,0.09375 0.117188,0.09375 0.117188,0.09375 0.128906,0 0.128906,-0.046875 0.128906,-0.2460937 v -0.9960938 c 0,-0.1757812 0,-0.2460937 -0.117188,-0.2460937 -0.04687,0 -0.07031,0 -0.199218,0.1171875 -0.02344,0.046875 -0.128907,0.1289062 -0.164063,0.1640625 -0.375,-0.28125 -0.785156,-0.28125 -0.9375,-0.28125 -1.21875,0 -1.59375,0.6679687 -1.59375,1.2304687 0,0.3398438 0.164063,0.6210938 0.433594,0.84375 0.316406,0.2578125 0.597656,0.3164063 1.3125,0.4570313 0.222656,0.035156 1.03125,0.1992187 1.03125,0.9140625 0,0.51562499 -0.351563,0.91406249 -1.125,0.91406249 -0.832031,0 -1.195313,-0.57421875 -1.382813,-1.41796879 -0.03516,-0.1289062 -0.03516,-0.1757812 -0.140625,-0.1757812 -0.128906,0 -0.128906,0.070312 -0.128906,0.2578125 v 1.31249999 c 0,0.1640625 0,0.234375 0.105469,0.234375 0.05859,0 0.07031,0 0.257812,-0.19921875 0.01172,-0.01171875 0.01172,-0.03515625 0.199219,-0.22265625 0.433594,0.421875 0.878906,0.421875 1.089844,0.421875 1.148437,0 1.605469,-0.66796875 1.605469,-1.38281249 z m 0,0"
       style="fill:#000000;fill-opacity:1;fill-rule:nonzero;stroke:none"
       aria-label="n,m,p,t,k,s"
       transform="matrix(1.3333333,0,0,1.3333333,278.17333,78.706667)" />
    <path
       id="path41"
       d="m 138.0146,13.8829 c -6.00644,22.41614 13.4454,22.41614 7.81543,1.40497"
       style="fill:none;stroke:#000000;stroke-width:0.3985;stroke-linecap:butt;stroke-linejoin:miter;stroke-miterlimit:10;stroke-dasharray:none;stroke-opacity:1"
       transform="matrix(1.3333333,0,0,-1.3333333,83.869333,85.977333)" />
    <path
       id="path42"
       d="M -1.19551,1.59401 C -1.09587,0.99626 0,0.09961 0.29886,0 0,-0.09961 -1.09587,-0.99626 -1.19551,-1.59401"
       style="fill:none;stroke:#000000;stroke-width:0.31879;stroke-linecap:round;stroke-linejoin:round;stroke-miterlimit:10;stroke-dasharray:none;stroke-opacity:1"
       transform="matrix(-0.34509333,1.28788,1.28788,0.34509333,278.30937,65.59348)" />
    <path
       id="path43"
       d="m 3.6200469,-3.7971484 c 0,-0.3164063 -0.3046875,-0.609375 -0.7265625,-0.609375 -0.7382813,0 -1.0898438,0.6679687 -1.2304688,1.1015625 v -1.1015625 l -1.38281247,0.1171875 v 0.3046875 c 0.69140625,0 0.77343747,0.070312 0.77343747,0.5625 v 2.66015621 c 0,0.45703125 -0.10546872,0.45703125 -0.77343747,0.45703125 V -2.734375e-4 L 1.4169219,-0.03542969 c 0.3984375,0 0.8671875,0 1.265625,0.0351562525 V -0.30496094 H 2.4716094 c -0.7382813,0 -0.7617188,-0.1171875 -0.7617188,-0.46875 V -2.3088672 c 0,-0.984375 0.421875,-1.875 1.1835938,-1.875 0.058594,0 0.082031,0 0.1054687,0.011719 -0.035156,0.011719 -0.234375,0.1289062 -0.234375,0.3867187 0,0.28125 0.2109375,0.4335938 0.4335938,0.4335938 0.1757812,0 0.421875,-0.1289063 0.421875,-0.4453127 z m 2.3115234,3.78515621 c 0,-0.6328125 -0.2460937,-1.04296871 -0.6445312,-1.04296871 -0.3515625,0 -0.5273438,0.26953121 -0.5273438,0.52734371 0,0.2578125 0.1757813,0.5273437525 0.5273438,0.5273437525 0.1523437,0 0.2929687,-0.0585937525 0.3984375,-0.1640625025 0.023437,0.796875 -0.2578125,1.39453124 -0.6914063,1.86328124 -0.058594,0.058594 -0.070312,0.070312 -0.070312,0.1171875 0,0.070312 0.046875,0.1054688 0.09375,0.1054688 0.1171875,0 0.9140625,-0.7851563 0.914062,-1.93359379 z M 12.535086,-2.734375e-4 V -0.30496094 c -0.667969,0 -0.785156,0 -0.785156,-0.45703125 V -6.9143359 l -1.429688,0.1054687 v 0.3164063 c 0.703125,0 0.773438,0.070312 0.773438,0.5507812 v 5.17968751 c 0,0.45703125 -0.105469,0.45703125 -0.773438,0.45703125 V -2.734375e-4 L 11.421805,-0.03542969 Z m 0,0"
       style="fill:#000000;fill-opacity:1;fill-rule:nonzero;stroke:none"
       aria-label="r,l"
       transform="matrix(1.3333333,0,0,1.3333333,264.33733,37.793333)" />
    <path
       id="path44"
       d="M 156.10674,0 H 197.7702"
       style="fill:none;stroke:#000000;stroke-width:0.3985;stroke-linecap:butt;stroke-linejoin:miter;stroke-miterlimit:10;stroke-dasharray:none;stroke-opacity:1"
       transform="matrix(1.3333333,0,0,-1.3333333,83.869333,85.977333)" />
    <path
       id="path45"
       d="M -1.19551,1.59401 C -1.09587,0.99626 0,0.09961 0.29886,0 0,-0.09961 -1.09587,-0.99626 -1.19551,-1.59401"
       style="fill:none;stroke:#000000;stroke-width:0.31879;stroke-linecap:round;stroke-linejoin:round;stroke-miterlimit:10;stroke-dasharray:none;stroke-opacity:1"
       transform="matrix(1.3333333,0,0,-1.3333333,347.56293,85.977333)" />
    <path
       id="path46"
       d="m 1.4053906,-2.2608516 c 0.328125,0.140625 0.6210938,0.140625 0.8554688,0.140625 0.2578125,0 0.8085937,0 0.8085937,-0.3046875 0,-0.2460937 -0.3515625,-0.2695312 -0.7265625,-0.2695312 -0.2109375,0 -0.5625,0.011719 -0.9257812,0.1875 -0.234375,-0.1171875 -0.3984375,-0.3164063 -0.3984375,-0.5859375 0,-0.5976563 0.9726562,-0.9609375 1.875,-0.9609375 0.1523437,0 0.515625,0 0.9140625,0.28125 0.1054687,0.082031 0.1289062,0.09375 0.1992187,0.09375 0.1289063,0 0.2695313,-0.1289063 0.2695313,-0.2695313 0,-0.1875 -0.609375,-0.5625 -1.2890625,-0.5625 -1.1484375,0 -2.22656252,0.6679688 -2.22656252,1.4179688 0,0.4335937 0.36328122,0.6796875 0.39843752,0.7148437 -0.58593752,0.328125 -0.90234377,0.8789063 -0.90234377,1.3476563 0,0.64453124 0.57421875,1.25390624 1.62890627,1.25390624 1.3125,0 1.8632812,-0.87890625 1.8632812,-1.03125 0,-0.0585938 -0.046875,-0.09375 -0.1054687,-0.09375 -0.046875,0 -0.082031,0.0351563 -0.09375,0.0703125 -0.140625,0.22265625 -0.3867188,0.59765625 -1.5820313,0.59765625 -0.609375,0 -1.45312497,-0.15234375 -1.45312497,-0.86718749 0,-0.328125 0.28125,-0.8554688 0.89062497,-1.1601563 z m 0.328125,-0.1289062 c 0.2226563,-0.082031 0.4335938,-0.09375 0.609375,-0.09375 0.2460938,0 0.28125,0.011719 0.46875,0.058594 -0.1523437,0.070312 -0.1757812,0.082031 -0.5507812,0.082031 -0.2226563,0 -0.3398438,0 -0.5273438,-0.046875 z m 0,0"
       style="fill:#000000;fill-opacity:1;fill-rule:nonzero;stroke:none"
       aria-label="ε"
       transform="matrix(1.3333333,0,0,1.3333333,316.99333,81.284)" />
    <path
       id="path47"
       d="m 6.6218828,-2.3210859 c 0,-0.1054688 0,-0.1757813 -0.1289062,-0.1757813 -0.1054688,0 -0.1054688,0.070312 -0.1171875,0.1640625 -0.082031,1.42968751 -1.1484375,2.23828126 -2.2265625,2.23828126 -0.609375,0 -2.5664063,-0.33984375 -2.5664063,-3.30468746 0,-2.9765625 1.9453125,-3.3164063 2.5546875,-3.3164063 1.078125,0 1.96875,0.9023438 2.1679688,2.3671875 0.023437,0.1289063 0.023437,0.1640625 0.1640625,0.1640625 0.1523437,0 0.1523437,-0.035156 0.1523437,-0.234375 v -2.3671875 c 0,-0.1640625 0,-0.234375 -0.1054687,-0.234375 -0.035156,0 -0.082031,0 -0.1640625,0.1171875 l -0.4921875,0.7382813 c -0.375,-0.3632813 -0.8789063,-0.8554688 -1.8398438,-0.8554688 -1.8632812,0 -3.45703124,1.5820313 -3.45703124,3.609375 0,2.0625 1.60546874,3.63281251 3.45703124,3.63281251 1.6289063,0 2.6015625,-1.38281251 2.6015625,-2.54296871 z m 2.4814453,-1.4414063 c 0,-0.2929687 -0.234375,-0.5273437 -0.5273437,-0.5273437 -0.28125,0 -0.5273438,0.234375 -0.5273438,0.5273437 0,0.28125 0.2460938,0.5273438 0.5273438,0.5273438 0.2929687,0 0.5273437,-0.2460938 0.5273437,-0.5273438 z m 0,3.23437501 c 0,-0.29296875 -0.234375,-0.52734371 -0.5273437,-0.52734371 -0.28125,0 -0.5273438,0.23437496 -0.5273438,0.52734371 0,0.29296875 0.2460938,0.5273437525 0.5273438,0.5273437525 0.2929687,0 0.5273437,-0.2343750025 0.5273437,-0.5273437525 z M 17.417781,-1.1843672 c 0,-0.1054687 -0.105469,-0.1054687 -0.128906,-0.1054687 -0.09375,0 -0.117188,0.046875 -0.128906,0.1054687 -0.292969,0.92578126 -0.9375,1.04296876 -1.3125,1.04296876 -0.527344,0 -1.40625,-0.421875 -1.40625,-2.02734376 0,-1.6289062 0.820312,-2.0507812 1.347656,-2.0507812 0.09375,0 0.714844,0.011719 1.066406,0.375 -0.410156,0.023437 -0.46875,0.328125 -0.46875,0.4570312 0,0.2578125 0.1875,0.4570313 0.457031,0.4570313 0.257813,0 0.457032,-0.1640625 0.457032,-0.46875 0,-0.6796875 -0.75,-1.0664063 -1.523438,-1.0664063 -1.242187,0 -2.15625,1.078125 -2.15625,2.3085938 0,1.27734371 0.984375,2.26171871 2.144531,2.26171871 1.335938,0 1.652344,-1.19531251 1.652344,-1.28906251 z m 4.97461,-0.9492187 c 0,-1.2773438 -0.996094,-2.3320313 -2.191407,-2.3320313 -1.253906,0 -2.214843,1.0898438 -2.214843,2.3320313 0,1.28906246 1.03125,2.23828121 2.203125,2.23828121 1.207031,0 2.203125,-0.97265625 2.203125,-2.23828121 z m -0.820313,-0.082031 c 0,0.3632813 0,0.9023438 -0.222656,1.33593751 -0.222656,0.4453125 -0.65625,0.73828125 -1.148438,0.73828125 -0.433593,0 -0.867187,-0.2109375 -1.136718,-0.66796875 -0.257813,-0.43359371 -0.257813,-1.04296871 -0.257813,-1.40625001 0,-0.3867187 0,-0.9257812 0.246094,-1.359375 0.269531,-0.4570312 0.738281,-0.6679687 1.136719,-0.6679687 0.433593,0 0.867187,0.2226562 1.125,0.6445312 0.257812,0.4335938 0.257812,1.0078125 0.257812,1.3828125 z m 6.445313,2.2148437625 V -0.30546094 c -0.515625,0 -0.773438,0 -0.785157,-0.3046875 V -2.5085859 c 0,-0.8554688 0,-1.171875 -0.304687,-1.5234375 -0.140625,-0.1757813 -0.46875,-0.375 -1.042969,-0.375 -0.726562,0 -1.195312,0.4335937 -1.476562,1.0546875 v -1.0546875 l -1.40625,0.1171875 v 0.3046875 c 0.703125,0 0.785156,0.070312 0.785156,0.5625 v 2.66015621 c 0,0.45703125 -0.117188,0.45703125 -0.785156,0.45703125 v 0.3046875025 l 1.125,-0.0351562525 1.113281,0.0351562525 V -0.30546094 c -0.65625,0 -0.773438,0 -0.773438,-0.45703125 V -2.5906172 c 0,-1.03125 0.714844,-1.59375 1.347657,-1.59375 0.621093,0 0.738281,0.5390625 0.738281,1.1015625 v 2.32031251 c 0,0.45703125 -0.117188,0.45703125 -0.773438,0.45703125 v 0.3046875025 l 1.125,-0.0351562525 z M 31.811336,-1.2781172 c 0,-0.5273437 -0.292969,-0.8203125 -0.421875,-0.9492187 -0.328125,-0.3164063 -0.714844,-0.3984375 -1.136719,-0.46875 -0.550781,-0.1171875 -1.21875,-0.2460938 -1.21875,-0.8203125 0,-0.3515625 0.257813,-0.7617188 1.113281,-0.7617188 1.101563,0 1.148438,0.9023438 1.171875,1.2070313 0,0.09375 0.117188,0.09375 0.117188,0.09375 0.128906,0 0.128906,-0.046875 0.128906,-0.2460938 v -0.9960937 c 0,-0.1757813 0,-0.2460938 -0.117187,-0.2460938 -0.04687,0 -0.07031,0 -0.199219,0.1171875 -0.02344,0.046875 -0.128906,0.1289063 -0.164063,0.1640625 -0.375,-0.28125 -0.785156,-0.28125 -0.9375,-0.28125 -1.21875,0 -1.59375,0.6679688 -1.59375,1.2304688 0,0.3398437 0.164063,0.6210937 0.433594,0.84375 0.316406,0.2578125 0.597656,0.3164062 1.3125,0.4570312 0.222656,0.035156 1.03125,0.1992188 1.03125,0.9140625 0,0.51562501 -0.351562,0.91406251 -1.125,0.91406251 -0.832031,0 -1.195312,-0.57421875 -1.382812,-1.41796871 -0.03516,-0.1289063 -0.03516,-0.1757813 -0.140625,-0.1757813 -0.128907,0 -0.128907,0.070312 -0.128907,0.2578125 v 1.31250001 c 0,0.1640625 0,0.234375 0.105469,0.234375 0.05859,0 0.07031,0 0.257813,-0.19921875 0.01172,-0.01171875 0.01172,-0.03515625 0.199218,-0.22265625 0.433594,0.421875 0.878907,0.421875 1.089844,0.421875 1.148438,0 1.605469,-0.66796875 1.605469,-1.38281251 z m 5.024414,-0.8554687 c 0,-1.2773438 -0.996094,-2.3320313 -2.191406,-2.3320313 -1.253907,0 -2.214844,1.0898438 -2.214844,2.3320313 0,1.28906246 1.03125,2.23828121 2.203125,2.23828121 1.207031,0 2.203125,-0.97265625 2.203125,-2.23828121 z m -0.820313,-0.082031 c 0,0.3632813 0,0.9023438 -0.222656,1.33593751 -0.222656,0.4453125 -0.65625,0.73828125 -1.148437,0.73828125 -0.433594,0 -0.867188,-0.2109375 -1.136719,-0.66796875 -0.257813,-0.43359371 -0.257813,-1.04296871 -0.257813,-1.40625001 0,-0.3867187 0,-0.9257812 0.246094,-1.359375 0.269531,-0.4570312 0.738281,-0.6679687 1.136719,-0.6679687 0.433594,0 0.867187,0.2226562 1.125,0.6445312 0.257812,0.4335938 0.257812,1.0078125 0.257812,1.3828125 z M 42.46368,-7.734375e-4 V -0.30546094 c -0.515625,0 -0.773438,0 -0.785157,-0.3046875 V -2.5085859 c 0,-0.8554688 0,-1.171875 -0.304687,-1.5234375 -0.140625,-0.1757813 -0.46875,-0.375 -1.042969,-0.375 -0.726562,0 -1.195312,0.4335937 -1.476562,1.0546875 v -1.0546875 l -1.40625,0.1171875 v 0.3046875 c 0.703125,0 0.785156,0.070312 0.785156,0.5625 v 2.66015621 c 0,0.45703125 -0.117188,0.45703125 -0.785156,0.45703125 v 0.3046875025 l 1.125,-0.0351562525 1.113281,0.0351562525 V -0.30546094 c -0.65625,0 -0.773438,0 -0.773438,-0.45703125 V -2.5906172 c 0,-1.03125 0.714844,-1.59375 1.347657,-1.59375 0.621093,0 0.738281,0.5390625 0.738281,1.1015625 v 2.32031251 c 0,0.45703125 -0.117188,0.45703125 -0.773438,0.45703125 v 0.3046875025 l 1.125,-0.0351562525 z M 47.485164,-0.89139844 V -1.4421797 h -0.257812 v 0.55078126 c 0,0.5859375 -0.246094,0.64453125 -0.351563,0.64453125 -0.328125,0 -0.375,-0.45703125 -0.375,-0.50390625 V -2.7429609 c 0,-0.4101563 0,-0.8085938 -0.351562,-1.171875 -0.386719,-0.3867188 -0.890625,-0.5507813 -1.371094,-0.5507813 -0.808594,0 -1.5,0.46875 -1.5,1.125 0,0.3046875 0.199219,0.46875 0.457031,0.46875 0.28125,0 0.457031,-0.1992187 0.457031,-0.4570312 0,-0.1171875 -0.04687,-0.4453125 -0.503906,-0.4570313 0.269531,-0.3515625 0.75,-0.4570312 1.078125,-0.4570312 0.480469,0 1.054688,0.3867187 1.054688,1.2773437 v 0.3632813 c -0.515625,0.035156 -1.207032,0.058594 -1.839844,0.3632812 -0.75,0.3398438 -0.996094,0.8554688 -0.996094,1.28906251 0,0.80859375 0.972656,1.0546875 1.59375,1.0546875 0.65625,0 1.113281,-0.3984375 1.3125,-0.8671875 0.03516,0.3984375 0.304688,0.8203125 0.773438,0.8203125 0.210937,0 0.820312,-0.140625 0.820312,-0.94921875 z M 45.821102,-1.3953047 c 0,0.94921876 -0.726563,1.28906251 -1.171875,1.28906251 -0.480469,0 -0.890625,-0.3515625 -0.890625,-0.85546875 0,-0.53906246 0.410156,-1.37109376 2.0625,-1.42968746 z m 7.163085,1.3945312625 V -0.30546094 c -0.515625,0 -0.773437,0 -0.785156,-0.3046875 V -2.5085859 c 0,-0.8554688 0,-1.171875 -0.304687,-1.5234375 -0.140625,-0.1757813 -0.46875,-0.375 -1.042969,-0.375 -0.726563,0 -1.195313,0.4335937 -1.476563,1.0546875 v -1.0546875 l -1.40625,0.1171875 v 0.3046875 c 0.703125,0 0.785157,0.070312 0.785157,0.5625 v 2.66015621 c 0,0.45703125 -0.117188,0.45703125 -0.785157,0.45703125 v 0.3046875025 l 1.125,-0.0351562525 1.113282,0.0351562525 V -0.30546094 c -0.65625,0 -0.773438,0 -0.773438,-0.45703125 V -2.5906172 c 0,-1.03125 0.714844,-1.59375 1.347656,-1.59375 0.621094,0 0.738282,0.5390625 0.738282,1.1015625 v 2.32031251 c 0,0.45703125 -0.117188,0.45703125 -0.773438,0.45703125 v 0.3046875025 l 1.125,-0.0351562525 z M 56.215633,-1.2312422 v -0.5742187 h -0.246094 v 0.5507812 c 0,0.73828126 -0.304687,1.11328126 -0.667969,1.11328126 -0.667968,0 -0.667968,-0.90234376 -0.667968,-1.07812496 v -2.765625 h 1.429687 v -0.3046875 h -1.429687 v -1.8398438 h -0.246094 c -0.01172,0.8203125 -0.316406,1.8867188 -1.289063,1.921875 v 0.2226563 h 0.84375 v 2.7539062 c 0,1.21875001 0.925782,1.33593751 1.289063,1.33593751 0.703125,0 0.984375,-0.703125 0.984375,-1.33593751 z m 0,0"
       style="fill:#000000;fill-opacity:1;fill-rule:nonzero;stroke:none"
       aria-label="C:consonant"
       transform="matrix(1.3333333,0,0,1.3333333,133.51067,130.044)" />
    <path
       id="path48"
       d="m 7.2781328,-6.4919062 v -0.3164063 c -0.3164062,0.023437 -0.7148437,0.035156 -0.9726562,0.035156 l -1.1367188,-0.035156 v 0.3164063 c 0.515625,0.011719 0.7265625,0.2695312 0.7265625,0.4921875 0,0.082031 -0.023437,0.140625 -0.046875,0.1992187 l -1.828125,4.8046875 -1.8984375,-5.0273437 c -0.058594,-0.140625 -0.058594,-0.1875 -0.058594,-0.1875 0,-0.28125 0.5625,-0.28125 0.8203125,-0.28125 v -0.3164063 c -0.3632813,0.035156 -1.0546875,0.035156 -1.4296875,0.035156 l -1.26562504,-0.035156 v 0.3164063 c 0.64453125,0 0.84375004,0 0.97265624,0.375 L 3.4812578,2.8125e-4 c 0.070312,0.1875 0.1171875,0.22265625 0.2460938,0.22265625 0.1640625,0 0.1875,-0.0585938 0.234375,-0.1875 l 2.2265625,-5.859375 c 0.140625,-0.375 0.4101562,-0.65625 1.0898437,-0.6679687 z m 2.1035156,2.7304687 c 0,-0.2929687 -0.234375,-0.5273437 -0.5273437,-0.5273437 -0.28125,0 -0.5273438,0.234375 -0.5273438,0.5273437 0,0.28125 0.2460938,0.5273438 0.5273438,0.5273438 0.2929687,0 0.5273437,-0.2460938 0.5273437,-0.5273438 z m 0,3.234375 c 0,-0.29296875 -0.234375,-0.5273437 -0.5273437,-0.5273437 -0.28125,0 -0.5273438,0.23437495 -0.5273438,0.5273437 0,0.29296875 0.2460938,0.52734375 0.5273438,0.52734375 0.2929687,0 0.5273437,-0.234375 0.5273437,-0.52734375 z m 9.2402346,-3.4570312 v -0.3046875 c -0.234375,0.011719 -0.515625,0.023437 -0.75,0.023437 l -0.867188,-0.023437 v 0.3046875 c 0.375,0.011719 0.480469,0.234375 0.480469,0.4335937 0,0.082031 -0.02344,0.1289063 -0.05859,0.234375 L 16.407039,-0.77315625 15.293758,-3.5505 c -0.05859,-0.140625 -0.05859,-0.1757812 -0.05859,-0.1757812 0,-0.2578125 0.386719,-0.2578125 0.5625,-0.2578125 v -0.3046875 l -1.078125,0.023437 c -0.269531,0 -0.667969,-0.011719 -0.972656,-0.023437 v 0.3046875 c 0.632812,0 0.667969,0.058594 0.796875,0.3632812 l 1.441406,3.5390625 c 0.05859,0.140625 0.07031,0.1875 0.199219,0.1875 0.128906,0 0.175781,-0.08203125 0.210937,-0.1875 l 1.3125,-3.234375 c 0.08203,-0.234375 0.257813,-0.65625 0.914063,-0.6679687 z m 4.605469,1.8515625 c 0,-1.2773438 -0.996094,-2.3320313 -2.191407,-2.3320313 -1.253906,0 -2.214843,1.0898438 -2.214843,2.3320313 0,1.28906245 1.03125,2.2382812 2.203125,2.2382812 1.207031,0 2.203125,-0.97265625 2.203125,-2.2382812 z m -0.820313,-0.082031 c 0,0.3632813 0,0.9023438 -0.222656,1.3359375 -0.222656,0.4453125 -0.65625,0.73828125 -1.148438,0.73828125 -0.433593,0 -0.867187,-0.2109375 -1.136718,-0.66796875 -0.257813,-0.4335937 -0.257813,-1.0429687 -0.257813,-1.40625 0,-0.3867187 0,-0.9257812 0.246094,-1.359375 0.269531,-0.4570312 0.738281,-0.6679687 1.136719,-0.6679687 0.433593,0 0.867187,0.2226562 1.125,0.6445312 0.257812,0.4335938 0.257812,1.0078125 0.257812,1.3828125 z m 7.842773,-1.7695312 v -0.3046875 c -0.222656,0.011719 -0.515625,0.023437 -0.726562,0.023437 l -0.9375,-0.023437 v 0.3046875 c 0.363281,0.011719 0.585937,0.1875 0.585937,0.4804687 0,0.058594 0,0.082031 -0.04687,0.2109375 L 28.21075,-0.74971875 27.226375,-3.5270625 c -0.03516,-0.1171875 -0.04687,-0.140625 -0.04687,-0.1875 0,-0.2695312 0.386719,-0.2695312 0.585937,-0.2695312 v -0.3046875 l -1.03125,0.023437 c -0.304687,0 -0.597656,-0.011719 -0.890625,-0.023437 v 0.3046875 c 0.363282,0 0.527344,0.023437 0.621094,0.1523437 0.05859,0.058594 0.164063,0.3515625 0.234375,0.5390625 l -0.855469,2.4140625 -0.949218,-2.6601562 c -0.04687,-0.1171875 -0.04687,-0.140625 -0.04687,-0.1757813 0,-0.2695312 0.386718,-0.2695312 0.585937,-0.2695312 v -0.3046875 l -1.089844,0.023437 -0.925781,-0.023437 v 0.3046875 c 0.503906,0 0.621094,0.035156 0.738281,0.3515625 l 1.253907,3.5273437 c 0.05859,0.140625 0.08203,0.2109375 0.210937,0.2109375 0.128906,0 0.152344,-0.05859375 0.199219,-0.19921875 l 1.007812,-2.81249995 1.019532,2.8242187 c 0.03516,0.1171875 0.07031,0.1875 0.199218,0.1875 0.128907,0 0.152344,-0.08203125 0.199219,-0.1875 l 1.160156,-3.2695312 c 0.175782,-0.4921875 0.492188,-0.6210938 0.84375,-0.6328125 z m 4.042969,2.8007812 c 0,-0.1054687 -0.08203,-0.1171875 -0.128906,-0.1171875 -0.09375,0 -0.117188,0.058594 -0.128906,0.140625 -0.351563,1.01953125 -1.253907,1.01953125 -1.347657,1.01953125 -0.503906,0 -0.902343,-0.29296875 -1.125,-0.66796875 -0.304687,-0.4804687 -0.304687,-1.1367187 -0.304687,-1.4882812 h 2.789062 c 0.210938,0 0.246094,0 0.246094,-0.2109375 0,-0.984375 -0.539062,-1.9570313 -1.78125,-1.9570313 -1.160156,0 -2.074219,1.03125 -2.074219,2.2734375 0,1.3359375 1.042969,2.296875 2.191407,2.296875 1.21875,0 1.664062,-1.1015625 1.664062,-1.2890625 z m -0.65625,-1.3242187 h -2.367187 c 0.05859,-1.4882813 0.902343,-1.734375 1.242187,-1.734375 1.019531,0 1.125,1.3476562 1.125,1.734375 z m 3.486328,2.50781245 v -0.3046875 c -0.667968,0 -0.785156,0 -0.785156,-0.45703125 v -6.1523437 l -1.429687,0.1054687 v 0.3164063 c 0.703125,0 0.773437,0.070312 0.773437,0.5507812 v 5.1796875 c 0,0.45703125 -0.105469,0.45703125 -0.773437,0.45703125 V 2.8125e-4 L 36.009578,-0.034875 Z m 0,0"
       style="fill:#000000;fill-opacity:1;fill-rule:nonzero;stroke:none"
       aria-label="V:vowel"
       transform="matrix(1.3333333,0,0,1.3333333,133.51067,145.984)" />
    <path
       id="path49"
       d="m 1.4070391,-2.2603828 c 0.328125,0.140625 0.6210937,0.140625 0.8554687,0.140625 0.2578125,0 0.8085938,0 0.8085938,-0.3046875 0,-0.2460938 -0.3515625,-0.2695313 -0.7265625,-0.2695313 -0.2109375,0 -0.5625,0.011719 -0.9257813,0.1875 -0.234375,-0.1171875 -0.3984375,-0.3164062 -0.3984375,-0.5859375 0,-0.5976562 0.9726563,-0.9609375 1.875,-0.9609375 0.1523438,0 0.515625,0 0.9140625,0.28125 0.1054688,0.082031 0.1289063,0.09375 0.1992188,0.09375 0.1289062,0 0.2695312,-0.1289062 0.2695312,-0.2695312 0,-0.1875 -0.609375,-0.5625 -1.2890625,-0.5625 -1.1484375,0 -2.22656249,0.6679687 -2.22656249,1.4179687 0,0.4335938 0.36328129,0.6796875 0.39843749,0.7148438 -0.58593749,0.328125 -0.90234374,0.8789062 -0.90234374,1.3476562 0,0.64453129 0.57421875,1.25390629 1.62890624,1.25390629 1.3125,0 1.8632813,-0.87890625 1.8632813,-1.03125 0,-0.0585938 -0.046875,-0.09375 -0.1054688,-0.09375 -0.046875,0 -0.082031,0.0351563 -0.09375,0.0703125 -0.140625,0.22265625 -0.3867187,0.59765625 -1.5820312,0.59765625 -0.609375,0 -1.45312504,-0.15234375 -1.45312504,-0.86718754 0,-0.328125 0.28125,-0.8554687 0.89062504,-1.1601562 z m 0.328125,-0.1289063 c 0.2226562,-0.082031 0.4335937,-0.09375 0.609375,-0.09375 0.2460937,0 0.28125,0.011719 0.46875,0.058594 -0.1523438,0.070312 -0.1757813,0.082031 -0.5507813,0.082031 -0.2226562,0 -0.3398437,0 -0.5273437,-0.046875 z m 0,0"
       style="fill:#000000;fill-opacity:1;fill-rule:nonzero;stroke:none"
       aria-label="ε"
       transform="matrix(1.3333333,0,0,1.3333333,133.51067,161.924)" />
    <path
       id="path50"
       d="m 1.9114297,-3.7603828 c 0,-0.2929688 -0.234375,-0.5273438 -0.5273438,-0.5273438 -0.28125,0 -0.52734371,0.234375 -0.52734371,0.5273438 0,0.28125 0.24609371,0.5273437 0.52734371,0.5273437 0.2929688,0 0.5273438,-0.2460937 0.5273438,-0.5273437 z m 0,3.23437499 c 0,-0.29296875 -0.234375,-0.52734379 -0.5273438,-0.52734379 -0.28125,0 -0.52734371,0.23437504 -0.52734371,0.52734379 0,0.29296875 0.24609371,0.52734375 0.52734371,0.52734375 0.2929688,0 0.5273438,-0.234375 0.5273438,-0.52734375 z M 11.330375,-1.1822578 c 0,-0.1054688 -0.08203,-0.1171875 -0.128906,-0.1171875 -0.09375,0 -0.117188,0.058594 -0.128907,0.140625 -0.351562,1.01953124 -1.2539058,1.01953124 -1.3476558,1.01953124 -0.5039062,0 -0.9023437,-0.29296875 -1.125,-0.66796875 C 8.2952187,-1.2877266 8.2952187,-1.9439766 8.2952187,-2.2955391 h 2.7890623 c 0.210938,0 0.246094,0 0.246094,-0.2109375 0,-0.984375 -0.539063,-1.9570312 -1.78125,-1.9570312 -1.1601563,0 -2.0742188,1.03125 -2.0742188,2.2734375 0,1.33593749 1.0429688,2.29687499 2.1914063,2.29687499 1.2187495,0 1.6640625,-1.1015625 1.6640625,-1.28906249 z m -0.65625,-1.3242188 H 8.3069375 c 0.058594,-1.4882812 0.9023437,-1.734375 1.2421875,-1.734375 1.019531,0 1.125,1.3476563 1.125,1.734375 z m 9.041016,2.50781254 v -0.3046875 c -0.515625,0 -0.761719,0 -0.773438,-0.3046875 V -2.5064766 c 0,-0.8554687 0,-1.171875 -0.316406,-1.5234375 -0.128906,-0.1757812 -0.46875,-0.375 -1.042969,-0.375 -0.832031,0 -1.277344,0.5976563 -1.441406,0.984375 -0.140625,-0.8671875 -0.878906,-0.984375 -1.324219,-0.984375 -0.726562,0 -1.195312,0.4335938 -1.476562,1.0546875 v -1.0546875 l -1.40625,0.1171875 v 0.3046875 c 0.703125,0 0.785156,0.070312 0.785156,0.5625 v 2.66015629 c 0,0.45703125 -0.117188,0.45703125 -0.785156,0.45703125 v 0.3046875 l 1.125,-0.03515625 1.113281,0.03515625 v -0.3046875 c -0.65625,0 -0.773438,0 -0.773438,-0.45703125 V -2.5885078 c 0,-1.03125 0.714844,-1.59375 1.347657,-1.59375 0.621093,0 0.738281,0.5390625 0.738281,1.1015625 v 2.32031249 c 0,0.45703125 -0.117188,0.45703125 -0.773438,0.45703125 v 0.3046875 l 1.125,-0.03515625 1.113282,0.03515625 v -0.3046875 c -0.667969,0 -0.785157,0 -0.785157,-0.45703125 V -2.5885078 c 0,-1.03125 0.714844,-1.59375 1.347657,-1.59375 0.632812,0 0.738281,0.5390625 0.738281,1.1015625 v 2.32031249 c 0,0.45703125 -0.105469,0.45703125 -0.773438,0.45703125 v 0.3046875 l 1.125,-0.03515625 z m 5.390625,-2.15625004 c 0,-1.265625 -0.972657,-2.25 -2.085938,-2.25 -0.773437,0 -1.195312,0.4453125 -1.394531,0.65625 v -0.65625 l -1.429688,0.1171875 v 0.3046875 c 0.703125,0 0.773438,0.058594 0.773438,0.4921875 v 4.6640625 c 0,0.4570313 -0.105469,0.4570313 -0.773438,0.4570313 v 0.3046875 l 1.113282,-0.035156 1.125,0.035156 V 1.6302422 c -0.667969,0 -0.773438,0 -0.773438,-0.4570313 v -1.75781246 c 0.04687,0.15234375 0.46875,0.69140625 1.21875,0.69140625 1.183594,0 2.226563,-0.97265625 2.226563,-2.26171879 z m -0.832032,0 c 0,1.20703129 -0.691406,2.05078129 -1.429687,2.05078129 -0.398438,0 -0.773438,-0.19921875 -1.042969,-0.609375 -0.140625,-0.2109375 -0.140625,-0.22265625 -0.140625,-0.42187499 v -2.2148438 c 0.28125,-0.515625 0.773438,-0.796875 1.277344,-0.796875 0.726562,0 1.335937,0.8671875 1.335937,1.9921875 z m 4.485352,0.9257813 v -0.5742188 h -0.246094 v 0.5507813 c 0,0.73828124 -0.304687,1.11328124 -0.667969,1.11328124 -0.667968,0 -0.667968,-0.90234374 -0.667968,-1.07812504 v -2.765625 h 1.429687 v -0.3046875 h -1.429687 v -1.8398437 h -0.246094 c -0.01172,0.8203125 -0.316406,1.8867187 -1.289063,1.921875 v 0.2226562 h 0.84375 v 2.7539063 c 0,1.21874999 0.925782,1.33593749 1.289063,1.33593749 0.703125,0 0.984375,-0.703125 0.984375,-1.33593749 z m 5.355469,-2.7539063 v -0.3046875 c -0.234375,0.011719 -0.515625,0.023437 -0.75,0.023437 l -0.867188,-0.023437 v 0.3046875 c 0.304688,0.011719 0.46875,0.1757813 0.46875,0.4335938 0,0.09375 -0.01172,0.1171875 -0.05859,0.234375 l -1.007812,2.44921874 -1.101563,-2.68359374 c -0.04687,-0.09375 -0.05859,-0.140625 -0.05859,-0.1757813 0,-0.2578125 0.363281,-0.2578125 0.550781,-0.2578125 v -0.3046875 l -1.078125,0.023437 c -0.269531,0 -0.667969,-0.011719 -0.972656,-0.023437 v 0.3046875 c 0.480468,0 0.667968,0 0.808593,0.3515625 l 1.5,3.63281254 -0.257812,0.5859375 C 31.079398,1.1380547 30.798148,1.8294609 30.153617,1.8294609 c -0.04687,0 -0.269531,0 -0.46875,-0.1875 0.316406,-0.035156 0.398438,-0.2578125 0.398438,-0.4101562 0,-0.26953126 -0.199219,-0.42187501 -0.421875,-0.42187501 -0.199219,0 -0.421875,0.12890625 -0.421875,0.42187501 0,0.4570312 0.421875,0.8085937 0.914062,0.8085937 0.632813,0 1.042969,-0.5625 1.277344,-1.13671871 l 1.757812,-4.25390629 c 0.257813,-0.6210937 0.761719,-0.6328125 0.925782,-0.6328125 z m 7.101562,2.7070313 c 0,-0.5273438 -0.292969,-0.8203125 -0.421875,-0.9492188 -0.328125,-0.3164062 -0.714844,-0.3984375 -1.136719,-0.46875 -0.550781,-0.1171875 -1.21875,-0.2460937 -1.21875,-0.8203125 0,-0.3515625 0.257813,-0.7617187 1.113282,-0.7617187 1.101562,0 1.148437,0.9023437 1.171875,1.2070312 0,0.09375 0.117187,0.09375 0.117187,0.09375 0.128906,0 0.128906,-0.046875 0.128906,-0.2460937 v -0.9960938 c 0,-0.1757812 0,-0.2460937 -0.117187,-0.2460937 -0.04687,0 -0.07031,0 -0.199219,0.1171875 -0.02344,0.046875 -0.128906,0.1289062 -0.164062,0.1640625 -0.375,-0.28125 -0.785157,-0.28125 -0.9375,-0.28125 -1.21875,0 -1.59375,0.6679687 -1.59375,1.2304687 0,0.3398438 0.164062,0.6210938 0.433593,0.84375 0.316407,0.2578125 0.597657,0.3164063 1.3125,0.4570313 0.222657,0.035156 1.03125,0.1992187 1.03125,0.9140625 0,0.51562499 -0.351562,0.91406249 -1.125,0.91406249 -0.832031,0 -1.195312,-0.57421875 -1.382812,-1.41796879 -0.03516,-0.1289062 -0.03516,-0.1757812 -0.140625,-0.1757812 -0.128906,0 -0.128906,0.070312 -0.128906,0.2578125 v 1.31249999 c 0,0.1640625 0,0.234375 0.105468,0.234375 0.05859,0 0.07031,0 0.257813,-0.19921875 0.01172,-0.01171875 0.01172,-0.03515625 0.199219,-0.22265625 0.433593,0.421875 0.878906,0.421875 1.089843,0.421875 1.148438,0 1.605469,-0.66796875 1.605469,-1.38281249 z m 3.641602,0.046875 v -0.5742188 h -0.246094 v 0.5507813 c 0,0.73828124 -0.304688,1.11328124 -0.667969,1.11328124 -0.667969,0 -0.667969,-0.90234374 -0.667969,-1.07812504 v -2.765625 h 1.429688 v -0.3046875 h -1.429688 v -1.8398437 h -0.246093 c -0.01172,0.8203125 -0.316407,1.8867187 -1.289063,1.921875 v 0.2226562 h 0.84375 v 2.7539063 c 0,1.21874999 0.925781,1.33593749 1.289063,1.33593749 0.703125,0 0.984375,-0.703125 0.984375,-1.33593749 z m 4.192383,-2.5664063 c 0,-0.3164062 -0.304688,-0.609375 -0.726563,-0.609375 -0.738281,0 -1.089844,0.6679688 -1.230469,1.1015625 v -1.1015625 l -1.382812,0.1171875 v 0.3046875 c 0.691406,0 0.773437,0.070312 0.773437,0.5625 v 2.66015629 c 0,0.45703125 -0.105468,0.45703125 -0.773437,0.45703125 v 0.3046875 l 1.136719,-0.03515625 c 0.398437,0 0.867187,0 1.265625,0.03515625 v -0.3046875 h -0.210938 c -0.738281,0 -0.761719,-0.1171875 -0.761719,-0.46875 V -2.3072578 c 0,-0.984375 0.421875,-1.875 1.183594,-1.875 0.05859,0 0.08203,0 0.105469,0.011719 -0.03516,0.011719 -0.234375,0.1289063 -0.234375,0.3867188 0,0.28125 0.210937,0.4335937 0.433594,0.4335937 0.175781,0 0.421875,-0.1289062 0.421875,-0.4453128 z m 2.745117,3.79687504 v -0.3046875 c -0.65625,0 -0.703125,-0.0585938 -0.703125,-0.4453125 V -4.4049141 l -1.394532,0.1171875 v 0.3046875 c 0.65625,0 0.738282,0.058594 0.738282,0.5507813 v 2.67187499 c 0,0.45703125 -0.105469,0.45703125 -0.773438,0.45703125 v 0.3046875 l 1.101563,-0.03515625 c 0.339843,0 0.691406,0.0234375 1.03125,0.03515625 z M 51.244437,-6.0103828 c 0,-0.2695313 -0.222656,-0.5273438 -0.527343,-0.5273438 -0.339844,0 -0.539063,0.2695313 -0.539063,0.5273438 0,0.2695312 0.234375,0.5273437 0.527344,0.5273437 0.339844,0 0.539062,-0.28125 0.539062,-0.5273437 z m 6.19336,6.01171874 v -0.3046875 c -0.515625,0 -0.773438,0 -0.785156,-0.3046875 V -2.5064766 c 0,-0.8554687 0,-1.171875 -0.304688,-1.5234375 -0.140625,-0.1757812 -0.46875,-0.375 -1.042969,-0.375 -0.726562,0 -1.195312,0.4335938 -1.476562,1.0546875 v -1.0546875 l -1.40625,0.1171875 v 0.3046875 c 0.703125,0 0.785156,0.070312 0.785156,0.5625 v 2.66015629 c 0,0.45703125 -0.117187,0.45703125 -0.785156,0.45703125 v 0.3046875 l 1.125,-0.03515625 1.113281,0.03515625 v -0.3046875 c -0.65625,0 -0.773437,0 -0.773437,-0.45703125 V -2.5885078 c 0,-1.03125 0.714843,-1.59375 1.347656,-1.59375 0.621094,0 0.738281,0.5390625 0.738281,1.1015625 v 2.32031249 c 0,0.45703125 -0.117187,0.45703125 -0.773437,0.45703125 v 0.3046875 l 1.125,-0.03515625 z M 62.471,-4.0181953 c 0,-0.1757813 -0.117188,-0.4921875 -0.503906,-0.4921875 -0.199219,0 -0.632813,0.058594 -1.054688,0.46875 -0.421875,-0.328125 -0.84375,-0.3632813 -1.054687,-0.3632813 -0.925782,0 -1.617188,0.6914063 -1.617188,1.453125 0,0.4453125 0.222656,0.8203125 0.46875,1.03125 -0.128906,0.1523438 -0.304687,0.4804688 -0.304687,0.8203125 0,0.31640629 0.128906,0.69140629 0.433593,0.89062504 -0.597656,0.17578125 -0.914062,0.59765625 -0.914062,0.99609375 0,0.71484371 0.984375,1.26562501 2.203125,1.26562501 1.171875,0 2.203125,-0.5039063 2.203125,-1.28906251 0,-0.33984375 -0.140625,-0.85546875 -0.644531,-1.125 -0.527344,-0.28125 -1.101563,-0.28125 -1.710938,-0.28125 -0.246094,0 -0.679687,0 -0.75,-0.0117188 -0.316406,-0.046875 -0.527344,-0.35156259 -0.527344,-0.66796879 0,-0.035156 0,-0.2695313 0.175782,-0.46875 0.386718,0.28125 0.796875,0.3046875 0.984375,0.3046875 0.925781,0 1.605468,-0.6796875 1.605468,-1.453125 0,-0.3632813 -0.152343,-0.7382813 -0.398437,-0.9609375 0.351562,-0.3398437 0.714844,-0.3867187 0.890625,-0.3867187 0,0 0.07031,0 0.105469,0 -0.117188,0.046875 -0.164063,0.1523438 -0.164063,0.2695313 0,0.1757811 0.128906,0.2929686 0.292969,0.2929686 0.09375,0 0.28125,-0.070312 0.28125,-0.2929686 z m -1.746094,1.0664062 c 0,0.2695313 -0.01172,0.5976563 -0.164062,0.84375 -0.08203,0.1171875 -0.304688,0.3984375 -0.703125,0.3984375 -0.867188,0 -0.867188,-0.9960937 -0.867188,-1.2304687 0,-0.2695313 0.01172,-0.5859375 0.152344,-0.8320313 0.08203,-0.1171875 0.316406,-0.3984375 0.714844,-0.3984375 0.867187,0 0.867187,0.9960938 0.867187,1.21875 z m 1.089844,3.73828129 c 0,0.53906251 -0.703125,1.04296871 -1.675781,1.04296871 -1.007813,0 -1.699219,-0.515625 -1.699219,-1.04296871 0,-0.45703125 0.375,-0.8203125 0.820312,-0.85546875 H 59.846 c 0.855469,0 1.96875,0 1.96875,0.85546875 z m 0,0"
       style="fill:#000000;fill-opacity:1;fill-rule:nonzero;stroke:none"
       aria-label=":emptystring"
       transform="matrix(1.3333333,0,0,1.3333333,139.70533,161.924)" />
    <path
       id="path51"
       d="m 7.1379844,-6.4935547 v -0.3164062 l -1.171875,0.035156 -1.1601563,-0.035156 v 0.3164062 c 1.0195313,0 1.0195313,0.46875 1.0195313,0.7382813 v 4.2539062 l -3.515625,-5.1796875 c -0.082031,-0.1171875 -0.09375,-0.1289062 -0.28125,-0.1289062 H 0.32939062 v 0.3164062 h 0.29296875 c 0.140625,0 0.33984375,0.011719 0.49218753,0.011719 0.234375,0.035156 0.2460937,0.046875 0.2460937,0.234375 v 5.203125 c 0,0.26953121 0,0.73828121 -1.03124998,0.73828121 v 0.3046875 l 1.17187498,-0.03515625 1.1601563,0.03515625 v -0.3046875 c -1.03125,0 -1.03125,-0.46875 -1.03125,-0.73828121 v -5.1796875 c 0.058594,0.046875 0.070312,0.058594 0.1054687,0.1171875 l 4.0664063,5.97656246 c 0.082031,0.1171875 0.09375,0.12890625 0.1640625,0.12890625 0.140625,0 0.140625,-0.0703125 0.140625,-0.2578125 V -5.7552734 c 0,-0.2695313 0,-0.7382813 1.03125,-0.7382813 z M 13.554,-4.5365234 13.27275,-6.7748047 H 7.8000937 v 0.3046875 h 0.234375 c 0.7734375,0 0.796875,0.1171875 0.796875,0.46875 v 5.22656251 c 0,0.3515625 -0.023437,0.46875 -0.796875,0.46875 h -0.234375 v 0.3046875 c 0.3515625,-0.03515625 1.125,-0.03515625 1.5117188,-0.03515625 0.4101562,0 1.3124995,0 1.6757815,0.03515625 v -0.3046875 h -0.328125 c -0.949219,0 -0.949219,-0.12890625 -0.949219,-0.48046875 V -3.2357422 h 0.855469 c 0.960937,0 1.054687,0.3164063 1.054687,1.1601563 h 0.257813 v -2.6367188 h -0.257813 c 0,0.8320313 -0.09375,1.1601563 -1.054687,1.1601563 H 9.71025 v -2.5195313 c 0,-0.328125 0.023437,-0.3984375 0.492187,-0.3984375 h 1.195313 c 1.488281,0 1.746094,0.5625 1.898437,1.9335938 z m 5.393555,2.6835937 c 0,-0.9960937 -0.65625,-1.8164062 -1.488282,-2.015625 L 16.18193,-4.1732422 c -0.621094,-0.1523437 -1.007813,-0.6914062 -1.007813,-1.265625 0,-0.703125 0.539063,-1.3007812 1.3125,-1.3007812 1.664063,0 1.886719,1.6289062 1.945313,2.0742187 0.01172,0.058594 0.01172,0.1171875 0.117187,0.1171875 0.128906,0 0.128906,-0.046875 0.128906,-0.234375 v -2.0039062 c 0,-0.1640625 0,-0.234375 -0.105468,-0.234375 -0.07031,0 -0.08203,0.011719 -0.152344,0.1289062 l -0.351563,0.5625 c -0.292968,-0.28125 -0.703125,-0.6914062 -1.59375,-0.6914062 -1.101562,0 -1.933593,0.8789062 -1.933593,1.9335937 0,0.8203125 0.527343,1.546875 1.300781,1.8164063 0.105469,0.046875 0.621094,0.1640625 1.3125,0.328125 0.269531,0.070312 0.574219,0.140625 0.84375,0.515625 0.210937,0.2578125 0.316406,0.5859375 0.316406,0.9140625 0,0.70312496 -0.503906,1.41796871 -1.335937,1.41796871 -0.292969,0 -1.042969,-0.046875 -1.570313,-0.5390625 -0.585937,-0.52734371 -0.609375,-1.17187501 -0.621094,-1.52343751 -0.01172,-0.1054687 -0.09375,-0.1054687 -0.117187,-0.1054687 -0.128906,0 -0.128906,0.070312 -0.128906,0.2460937 v 1.99218751 c 0,0.17578125 0,0.24609375 0.105468,0.24609375 0.07031,0 0.08203,-0.0234375 0.152344,-0.12890625 0,0 0.02344,-0.046875 0.351563,-0.57421875 0.316406,0.33984375 0.949218,0.703125 1.839843,0.703125 1.160157,0 1.957032,-0.984375 1.957032,-2.07421876 z m 7.705078,1.85156251 v -0.3046875 h -0.175781 c -0.597657,0 -0.738282,-0.0703125 -0.84375,-0.3984375 l -2.15625,-6.23437501 c -0.04687,-0.1289062 -0.07031,-0.1992187 -0.222657,-0.1992187 -0.164062,0 -0.1875,0.058594 -0.246093,0.1992187 l -2.0625,5.96484376 c -0.175782,0.50390625 -0.574219,0.65625 -1.113282,0.66796875 v 0.3046875 l 1.019532,-0.03515625 1.148437,0.03515625 v -0.3046875 c -0.503906,0 -0.75,-0.2578125 -0.75,-0.515625 0,-0.0234375 0.01172,-0.12890625 0.02344,-0.140625 L 21.73076,-2.2748047 h 2.460937 l 0.527344,1.52343751 c 0.01172,0.046875 0.02344,0.10546875 0.02344,0.140625 0,0.3046875 -0.550782,0.3046875 -0.820313,0.3046875 v 0.3046875 c 0.351563,-0.03515625 1.054688,-0.03515625 1.429688,-0.03515625 z M 24.074508,-2.5794922 h -2.238281 l 1.113281,-3.234375 z m 9.782226,-3.75 c 0,-0.3632812 -0.363281,-0.6914062 -0.890625,-0.6914062 -0.703125,0 -1.546875,0.5273437 -1.546875,1.5820312 v 1.1484375 h -0.785156 v 0.3046875 h 0.785156 v 3.22265626 c 0,0.45703125 -0.105468,0.45703125 -0.773437,0.45703125 v 0.3046875 l 1.136719,-0.03515625 c 0.398437,0 0.867187,0 1.265625,0.03515625 v -0.3046875 h -0.210938 c -0.738281,0 -0.761719,-0.1171875 -0.761719,-0.46875 V -3.9857422 h 1.136719 v -0.3046875 h -1.160156 v -1.1601562 c 0,-0.8789063 0.480469,-1.359375 0.914062,-1.359375 0.03516,0 0.175782,0 0.328125,0.070312 -0.117187,0.046875 -0.292968,0.1757812 -0.292968,0.421875 0,0.234375 0.152343,0.4335937 0.421875,0.4335937 0.292968,0 0.433593,-0.1992187 0.433593,-0.445312 z m 4.186524,4.1953125 c 0,-1.2773437 -0.996094,-2.3320312 -2.191406,-2.3320312 -1.253907,0 -2.214844,1.0898437 -2.214844,2.3320312 0,1.28906251 1.03125,2.23828126 2.203125,2.23828126 1.207031,0 2.203125,-0.97265625 2.203125,-2.23828126 z m -0.820313,-0.082031 c 0,0.3632812 0,0.9023437 -0.222656,1.33593746 -0.222656,0.4453125 -0.65625,0.73828125 -1.148437,0.73828125 -0.433594,0 -0.867188,-0.2109375 -1.136719,-0.66796875 C 34.45732,-1.2435547 34.45732,-1.8529297 34.45732,-2.2162109 c 0,-0.3867188 0,-0.9257813 0.246094,-1.359375 0.269531,-0.4570313 0.738281,-0.6679688 1.136719,-0.6679688 0.433594,0 0.867187,0.2226563 1.125,0.6445313 0.257812,0.4335937 0.257812,1.0078125 0.257812,1.3828127 z M 41.95732,-3.798242 c 0,-0.3164062 -0.304687,-0.609375 -0.726562,-0.609375 -0.738281,0 -1.089844,0.6679688 -1.230469,1.1015625 V -4.407617 l -1.382812,0.1171875 v 0.3046875 c 0.691406,0 0.773437,0.070312 0.773437,0.5625 v 2.66015626 c 0,0.45703125 -0.105469,0.45703125 -0.773437,0.45703125 v 0.3046875 l 1.136718,-0.03515625 c 0.398438,0 0.867188,0 1.265625,0.03515625 v -0.3046875 h -0.210937 c -0.738281,0 -0.761719,-0.1171875 -0.761719,-0.46875 V -2.3099609 c 0,-0.984375 0.421875,-1.875 1.183594,-1.875 0.05859,0 0.08203,0 0.105469,0.011719 -0.03516,0.011719 -0.234375,0.1289063 -0.234375,0.3867188 0,0.28125 0.210937,0.4335937 0.433593,0.4335937 0.175782,0 0.421875,-0.1289062 0.421875,-0.4453126 z m 10.092774,1.2304688 H 51.804 c -0.246094,1.5351562 -0.480469,2.26171871 -2.191406,2.26171871 h -1.324219 c -0.46875,0 -0.492188,-0.0703125 -0.492188,-0.3984375 V -3.3646484 h 0.902344 c 0.960938,0 1.078125,0.3164062 1.078125,1.1601562 h 0.246094 v -2.6367187 h -0.246094 c 0,0.8554687 -0.117187,1.1601562 -1.078125,1.1601562 h -0.902344 v -2.390625 c 0,-0.328125 0.02344,-0.3984375 0.492188,-0.3984375 h 1.289062 c 1.523438,0 1.792969,0.5507813 1.945313,1.9335938 h 0.246094 l -0.269532,-2.2382813 h -5.613281 v 0.3046875 h 0.234375 c 0.773438,0 0.796875,0.1171875 0.796875,0.46875 v 5.22656251 c 0,0.3515625 -0.02344,0.46875 -0.796875,0.46875 h -0.234375 v 0.3046875 h 5.753906 z m 5.625,2.56640621 v -0.3046875 c -0.515625,0 -0.773438,0 -0.785157,-0.3046875 V -2.5091797 c 0,-0.8554687 0,-1.171875 -0.304687,-1.5234375 -0.140625,-0.1757812 -0.46875,-0.375 -1.042969,-0.375 -0.726562,0 -1.195312,0.4335938 -1.476562,1.0546875 v -1.0546875 l -1.40625,0.1171875 v 0.3046875 c 0.703125,0 0.785156,0.070312 0.785156,0.5625 v 2.66015626 c 0,0.45703125 -0.117188,0.45703125 -0.785156,0.45703125 v 0.3046875 l 1.125,-0.03515625 1.113281,0.03515625 v -0.3046875 c -0.65625,0 -0.773438,0 -0.773438,-0.45703125 V -2.5912109 c 0,-1.03125 0.714844,-1.59375 1.347657,-1.59375 0.621093,0 0.738281,0.5390625 0.738281,1.1015625 v 2.32031246 c 0,0.45703125 -0.117188,0.45703125 -0.773438,0.45703125 v 0.3046875 l 1.125,-0.03515625 z m 5.036133,-4.01953121 c 0,-0.1757813 -0.117188,-0.4921875 -0.503907,-0.4921875 -0.199218,0 -0.632812,0.058594 -1.054687,0.46875 -0.421875,-0.328125 -0.84375,-0.3632813 -1.054688,-0.3632813 -0.925781,0 -1.617187,0.6914063 -1.617187,1.453125 0,0.4453125 0.222656,0.8203125 0.46875,1.03125 -0.128906,0.1523438 -0.304688,0.4804688 -0.304688,0.8203125 0,0.31640626 0.128907,0.69140626 0.433594,0.89062501 -0.597656,0.17578125 -0.914062,0.59765625 -0.914062,0.99609375 0,0.71484374 0.984375,1.26562504 2.203125,1.26562504 1.171875,0 2.203125,-0.5039063 2.203125,-1.28906254 0,-0.33984375 -0.140625,-0.85546875 -0.644532,-1.125 -0.527343,-0.28125 -1.101562,-0.28125 -1.710937,-0.28125 -0.246094,0 -0.679688,0 -0.75,-0.0117188 -0.316406,-0.046875 -0.527344,-0.35156256 -0.527344,-0.66796876 0,-0.035156 0,-0.2695313 0.175781,-0.46875 0.386719,0.28125 0.796875,0.3046875 0.984375,0.3046875 0.925782,0 1.605469,-0.6796875 1.605469,-1.453125 0,-0.3632813 -0.152344,-0.7382813 -0.398437,-0.9609375 0.351562,-0.3398438 0.714843,-0.3867188 0.890625,-0.3867188 0,0 0.07031,0 0.105468,0 -0.117187,0.046875 -0.164062,0.1523438 -0.164062,0.2695313 0,0.1757812 0.128906,0.2929687 0.292969,0.2929687 0.09375,0 0.28125,-0.070312 0.28125,-0.2929686 z m -1.746094,1.0664062 c 0,0.2695313 -0.01172,0.5976563 -0.164063,0.84375 -0.08203,0.1171875 -0.304687,0.3984375 -0.703125,0.3984375 -0.867187,0 -0.867187,-0.9960937 -0.867187,-1.2304687 0,-0.2695313 0.01172,-0.5859375 0.152344,-0.8320313 0.08203,-0.1171875 0.316406,-0.3984375 0.714843,-0.3984375 0.867188,0 0.867188,0.9960938 0.867188,1.21875 z m 1.089844,3.73828126 c 0,0.53906254 -0.703125,1.04296874 -1.675782,1.04296874 -1.007812,0 -1.699218,-0.515625 -1.699218,-1.04296874 0,-0.45703125 0.375,-0.8203125 0.820312,-0.85546875 h 0.585938 c 0.855468,0 1.96875,0 1.96875,0.85546875 z m 3.351562,-0.78515625 v -0.3046875 c -0.667969,0 -0.785156,0 -0.785156,-0.45703125 V -6.9154297 l -1.429688,0.1054688 v 0.3164062 c 0.703125,0 0.773438,0.070312 0.773438,0.5507813 v 5.17968746 c 0,0.45703125 -0.105469,0.45703125 -0.773438,0.45703125 v 0.3046875 l 1.101563,-0.03515625 z m 2.689453,0 v -0.3046875 c -0.65625,0 -0.703125,-0.0585938 -0.703125,-0.4453125 V -4.4076172 l -1.394531,0.1171875 v 0.3046875 c 0.65625,0 0.738281,0.058594 0.738281,0.5507813 v 2.67187496 c 0,0.45703125 -0.105469,0.45703125 -0.773437,0.45703125 v 0.3046875 l 1.101562,-0.03515625 c 0.339844,0 0.691406,0.0234375 1.03125,0.03515645 z M 67.545211,-6.0130859 c 0,-0.2695313 -0.222656,-0.5273438 -0.527344,-0.5273438 -0.339844,0 -0.539062,0.2695313 -0.539062,0.5273438 0,0.2695312 0.234375,0.5273437 0.527343,0.5273437 0.339844,0 0.539063,-0.28125 0.539063,-0.5273437 z m 4.444336,4.734375 c 0,-0.5273438 -0.292969,-0.8203125 -0.421875,-0.9492188 -0.328125,-0.3164062 -0.714844,-0.3984375 -1.136719,-0.46875 -0.550781,-0.1171875 -1.21875,-0.2460937 -1.21875,-0.8203125 0,-0.3515625 0.257813,-0.7617187 1.113281,-0.7617187 1.101563,0 1.148438,0.9023437 1.171875,1.2070312 0,0.09375 0.117188,0.09375 0.117188,0.09375 0.128906,0 0.128906,-0.046875 0.128906,-0.2460937 v -0.9960938 c 0,-0.1757812 0,-0.2460937 -0.117187,-0.2460937 -0.04687,0 -0.07031,0 -0.199219,0.1171875 -0.02344,0.046875 -0.128906,0.1289062 -0.164063,0.1640625 -0.375,-0.28125 -0.785156,-0.28125 -0.9375,-0.28125 -1.21875,0 -1.59375,0.6679687 -1.59375,1.2304687 0,0.3398438 0.164063,0.6210938 0.433594,0.84375 0.316406,0.2578125 0.597656,0.3164063 1.3125,0.4570313 0.222656,0.035156 1.03125,0.1992187 1.03125,0.9140625 0,0.51562496 -0.351562,0.91406246 -1.125,0.91406246 -0.832031,0 -1.195312,-0.57421875 -1.382812,-1.41796876 -0.03516,-0.1289062 -0.03516,-0.1757812 -0.140625,-0.1757812 -0.128907,0 -0.128907,0.070312 -0.128907,0.2578125 v 1.31249996 c 0,0.1640625 0,0.234375 0.105469,0.234375 0.05859,0 0.07031,0 0.257813,-0.19921875 0.01172,-0.01171875 0.01172,-0.03515625 0.199218,-0.22265625 0.433594,0.421875 0.878907,0.421875 1.089844,0.421875 1.148438,0 1.605469,-0.66796875 1.605469,-1.38281246 z m 5.671875,1.27734371 v -0.3046875 c -0.515625,0 -0.773438,0 -0.785156,-0.3046875 V -2.5091797 c 0,-0.8554687 0,-1.171875 -0.304688,-1.5234375 -0.140625,-0.1757812 -0.46875,-0.375 -1.042969,-0.375 -0.84375,0 -1.277343,0.5976563 -1.441406,0.9609375 v -3.46875 l -1.441406,0.1054688 v 0.3164062 c 0.703125,0 0.785156,0.070312 0.785156,0.5507813 v 5.17968746 c 0,0.45703125 -0.117187,0.45703125 -0.785156,0.45703125 v 0.3046875 l 1.125,-0.03515625 1.113281,0.03515625 v -0.3046875 c -0.65625,0 -0.773437,0 -0.773437,-0.45703125 V -2.5912109 c 0,-1.03125 0.714843,-1.59375 1.347656,-1.59375 0.621094,0 0.738281,0.5390625 0.738281,1.1015625 v 2.32031246 c 0,0.45703125 -0.117187,0.45703125 -0.773437,0.45703125 v 0.3046875 l 1.125,-0.03515625 z m 8.484375,-1.85156251 c 0,-0.9960937 -0.65625,-1.8164062 -1.488281,-2.015625 l -1.277344,-0.3046875 c -0.621094,-0.1523437 -1.007813,-0.6914062 -1.007813,-1.265625 0,-0.703125 0.539063,-1.3007812 1.3125,-1.3007812 1.664063,0 1.886719,1.6289062 1.945313,2.0742187 0.01172,0.058594 0.01172,0.1171875 0.117187,0.1171875 0.128907,0 0.128907,-0.046875 0.128907,-0.234375 v -2.0039062 c 0,-0.1640625 0,-0.234375 -0.105469,-0.234375 -0.07031,0 -0.08203,0.011719 -0.152344,0.1289062 l -0.351562,0.5625 c -0.292969,-0.28125 -0.703125,-0.6914062 -1.59375,-0.6914062 -1.101563,0 -1.933594,0.8789062 -1.933594,1.9335937 0,0.8203125 0.527344,1.546875 1.300781,1.8164063 0.105469,0.046875 0.621094,0.1640625 1.3125,0.328125 0.269531,0.070312 0.574219,0.140625 0.84375,0.515625 0.210938,0.2578125 0.316406,0.5859375 0.316406,0.9140625 0,0.70312496 -0.503906,1.41796871 -1.335937,1.41796871 -0.292969,0 -1.042969,-0.046875 -1.570313,-0.5390625 -0.585937,-0.52734371 -0.609375,-1.17187501 -0.621093,-1.52343751 -0.01172,-0.1054687 -0.09375,-0.1054687 -0.117188,-0.1054687 -0.128906,0 -0.128906,0.070312 -0.128906,0.2460937 v 1.99218751 c 0,0.17578125 0,0.24609375 0.105469,0.24609375 0.07031,0 0.08203,-0.0234375 0.152343,-0.12890625 0,0 0.02344,-0.046875 0.351563,-0.57421875 0.316406,0.33984375 0.949219,0.703125 1.839844,0.703125 1.160156,0 1.957031,-0.984375 1.957031,-2.07421876 z m 5.630859,-2.1328125 v -0.3046875 c -0.234375,0.011719 -0.515625,0.023437 -0.75,0.023437 l -0.867187,-0.023437 v 0.3046875 c 0.304687,0.011719 0.46875,0.1757813 0.46875,0.4335938 0,0.09375 -0.01172,0.1171875 -0.05859,0.234375 L 89.561812,-0.86855469 88.46025,-3.5521484 c -0.04687,-0.09375 -0.05859,-0.140625 -0.05859,-0.1757813 0,-0.2578125 0.363281,-0.2578125 0.550781,-0.2578125 v -0.3046875 l -1.078125,0.023437 c -0.269531,0 -0.667968,-0.011719 -0.972656,-0.023437 v 0.3046875 c 0.480469,0 0.667969,0 0.808594,0.3515625 l 1.5,3.63281251 -0.257813,0.5859375 C 88.7415,1.1353516 88.46025,1.8267578 87.815719,1.8267578 c -0.04687,0 -0.269532,0 -0.46875,-0.1875 0.316406,-0.035156 0.398437,-0.2578125 0.398437,-0.4101562 0,-0.26953129 -0.199219,-0.42187504 -0.421875,-0.42187504 -0.199219,0 -0.421875,0.12890625 -0.421875,0.42187504 0,0.4570312 0.421875,0.8085937 0.914063,0.8085937 0.632812,0 1.042968,-0.5625 1.277343,-1.13671874 l 1.757813,-4.25390626 c 0.257812,-0.6210937 0.761719,-0.6328125 0.925781,-0.6328125 z m 2.742188,3.98437501 v -0.3046875 c -0.667969,0 -0.785157,0 -0.785157,-0.45703125 V -6.9154297 L 92.304,-6.8099609 v 0.3164062 c 0.703125,0 0.773437,0.070312 0.773437,0.5507813 v 5.17968746 c 0,0.45703125 -0.105468,0.45703125 -0.773437,0.45703125 v 0.3046875 l 1.101562,-0.03515625 z m 2.768554,0 v -0.3046875 c -0.667968,0 -0.785156,0 -0.785156,-0.45703125 V -6.9154297 l -1.429687,0.1054688 v 0.3164062 c 0.703125,0 0.773437,0.070312 0.773437,0.5507813 v 5.17968746 c 0,0.45703125 -0.105469,0.45703125 -0.773437,0.45703125 v 0.3046875 l 1.101562,-0.03515625 z m 5.041992,-0.890625 V -1.4427734 h -0.25781 v 0.55078121 c 0,0.5859375 -0.2461,0.64453125 -0.35156,0.64453125 -0.32813,0 -0.375,-0.45703125 -0.375,-0.50390625 V -2.7435547 c 0,-0.4101562 0,-0.8085937 -0.35157,-1.171875 -0.38672,-0.3867187 -0.89062,-0.5507812 -1.371091,-0.5507812 -0.808593,0 -1.5,0.46875 -1.5,1.125 0,0.3046875 0.199219,0.46875 0.457032,0.46875 0.28125,0 0.457031,-0.1992188 0.457031,-0.4570313 0,-0.1171875 -0.04687,-0.4453125 -0.503906,-0.4570312 0.269531,-0.3515625 0.75,-0.4570313 1.078125,-0.4570313 0.480469,0 1.054689,0.3867188 1.054689,1.2773438 v 0.3632812 c -0.51563,0.035156 -1.207033,0.058594 -1.839846,0.3632813 -0.75,0.3398437 -0.996093,0.8554687 -0.996093,1.28906246 0,0.80859375 0.972656,1.0546875 1.59375,1.0546875 0.656249,0 1.113279,-0.3984375 1.312499,-0.8671875 0.0352,0.3984375 0.30469,0.8203125 0.77344,0.8203125 0.21094,0 0.82031,-0.140625 0.82031,-0.94921875 z m -1.66406,-0.50390621 c 0,0.94921871 -0.726564,1.28906246 -1.171877,1.28906246 -0.480469,0 -0.890625,-0.3515625 -0.890625,-0.85546875 0,-0.53906251 0.410156,-1.37109371 2.062502,-1.42968751 z m 7.02246,-0.7617188 c 0,-1.265625 -0.97266,-2.25 -2.10938,-2.25 -0.78515,0 -1.20703,0.46875 -1.37109,0.65625 v -3.1640625 l -1.42969,0.1054688 v 0.3164062 c 0.69141,0 0.77344,0.070312 0.77344,0.5507813 v 5.94140621 h 0.24609 l 0.36329,-0.62109375 c 0.15234,0.234375 0.5625,0.7265625 1.30078,0.7265625 1.18359,0 2.22656,-0.97265625 2.22656,-2.26171876 z m -0.83203,0 c 0,0.3632813 -0.0117,0.9609375 -0.30469,1.40625001 -0.21094,0.31640625 -0.58594,0.64453125 -1.125,0.64453125 -0.44531,0 -0.80859,-0.24609375 -1.04297,-0.609375 -0.14062,-0.2109375 -0.14062,-0.24609375 -0.14062,-0.42187496 v -2.0507813 c 0,-0.1875 0,-0.1992187 0.10547,-0.3632812 0.38671,-0.5507813 0.9375,-0.6328125 1.17187,-0.6328125 0.45703,0 0.80859,0.2578125 1.05469,0.6328125 0.25781,0.4101562 0.28125,0.984375 0.28125,1.3945312 z m 3.7207,2.15625001 v -0.3046875 c -0.66797,0 -0.78516,0 -0.78516,-0.45703125 V -6.9154297 l -1.42968,0.1054688 v 0.3164062 c 0.70312,0 0.77343,0.070312 0.77343,0.5507813 v 5.17968746 c 0,0.45703125 -0.10546,0.45703125 -0.77343,0.45703125 v 0.3046875 l 1.10156,-0.03515625 z m 4.36524,-1.18359371 c 0,-0.1054688 -0.082,-0.1171875 -0.12891,-0.1171875 -0.0937,0 -0.11719,0.058594 -0.12891,0.140625 -0.35156,1.01953121 -1.2539,1.01953121 -1.34765,1.01953121 -0.50391,0 -0.90235,-0.29296875 -1.125,-0.66796875 -0.30469,-0.48046876 -0.30469,-1.13671876 -0.30469,-1.48828126 h 2.78906 c 0.21094,0 0.2461,0 0.2461,-0.2109375 0,-0.984375 -0.53907,-1.9570312 -1.78125,-1.9570312 -1.16016,0 -2.07422,1.03125 -2.07422,2.2734375 0,1.33593746 1.04297,2.29687496 2.1914,2.29687496 1.21875,0 1.66407,-1.1015625 1.66407,-1.28906246 z m -0.65625,-1.3242188 h -2.36719 c 0.0586,-1.4882812 0.90234,-1.734375 1.24219,-1.734375 1.01953,0 1.125,1.3476563 1.125,1.734375 z m 4.52929,1.2304688 c 0,-0.5273438 -0.29297,-0.8203125 -0.42187,-0.9492188 -0.32813,-0.3164062 -0.71485,-0.3984375 -1.13672,-0.46875 -0.55078,-0.1171875 -1.21875,-0.2460937 -1.21875,-0.8203125 0,-0.3515625 0.25781,-0.7617187 1.11328,-0.7617187 1.10156,0 1.14844,0.9023437 1.17187,1.2070312 0,0.09375 0.11719,0.09375 0.11719,0.09375 0.12891,0 0.12891,-0.046875 0.12891,-0.2460937 v -0.9960938 c 0,-0.1757812 0,-0.2460937 -0.11719,-0.2460937 -0.0469,0 -0.0703,0 -0.19922,0.1171875 -0.0234,0.046875 -0.1289,0.1289062 -0.16406,0.1640625 -0.375,-0.28125 -0.78516,-0.28125 -0.9375,-0.28125 -1.21875,0 -1.59375,0.6679687 -1.59375,1.2304687 0,0.3398438 0.16406,0.6210938 0.43359,0.84375 0.31641,0.2578125 0.59766,0.3164063 1.3125,0.4570313 0.22266,0.035156 1.03125,0.1992187 1.03125,0.9140625 0,0.51562496 -0.35156,0.91406246 -1.125,0.91406246 -0.83203,0 -1.19531,-0.57421875 -1.38281,-1.41796876 -0.0352,-0.1289062 -0.0352,-0.1757812 -0.14062,-0.1757812 -0.12891,0 -0.12891,0.070312 -0.12891,0.2578125 v 1.31249996 c 0,0.1640625 0,0.234375 0.10547,0.234375 0.0586,0 0.0703,0 0.25781,-0.19921875 0.0117,-0.01171875 0.0117,-0.03515625 0.19922,-0.22265625 0.43359,0.421875 0.87891,0.421875 1.08984,0.421875 1.14844,0 1.60547,-0.66796875 1.60547,-1.38281246 z m 0,0"
       style="fill:#000000;fill-opacity:1;fill-rule:nonzero;stroke:none"
       aria-label="NFSAforEnglishSyllables"
       transform="matrix(1.3333333,0,0,1.3333333,4.428,70.466667)" />
  </g>
</svg>
